<svg xmlns="http://www.w3.org/2000/svg" xmlns:xlink="http://www.w3.org/1999/xlink" xmlns:inkscape="http://www.inkscape.org/namespaces/inkscape" version="1.1" width="24" height="24" viewBox="0 0 24 24">
<path transform="matrix(-0,1,1,0,.353516,6)" d="M.53033 14.176814C.237437 14.469707-.237437 14.469707-.53033 14.176814-.823223 13.883922-.823223 13.409047-.53033 13.116155L.53033 14.176814ZM12.53033 13.116155C12.823223 13.409047 12.823223 13.883922 12.53033 14.176814 12.237437 14.469707 11.762563 14.469707 11.46967 14.176814L12.53033 13.116155ZM-.53033 13.116155 4.762563 7.823261 5.823223 8.883921 .53033 14.176814-.53033 13.116155ZM7.237437 7.823261 12.53033 13.116155 11.46967 14.176814 6.176777 8.883921 7.237437 7.823261ZM4.762563 7.823261C5.445981 7.139843 6.554019 7.139843 7.237437 7.823261L6.176777 8.883921C6.079146 8.78629 5.920854 8.78629 5.823223 8.883921L4.762563 7.823261Z" fill="#4b859f"/>
</svg>
