<?xml version="1.0" encoding="UTF-8"?>
<svg version="1.1" xmlns="http://www.w3.org/2000/svg" width="512" height="512">
<path d="M0 0 C3.04469126 2.67563778 4.7619003 4.82927512 5.3828125 8.92578125 C5.72240417 15.66101609 3.36875781 19.25124149 -1.16321945 24.28431511 C-2.38551695 25.50384723 -2.38551695 25.50384723 -3.63250732 26.74801636 C-4.08919934 27.20641722 -4.54589135 27.66481808 -5.01642251 28.13710988 C-6.53326699 29.65722345 -8.05710068 31.17012211 -9.58105469 32.68310547 C-10.67565666 33.77714277 -11.76981738 34.8716217 -12.86357117 35.96650696 C-15.82365504 38.92716315 -18.78985174 41.88162498 -21.75720501 44.83499289 C-24.86111195 47.92637243 -27.95933222 51.02344065 -31.0581665 54.11990356 C-36.92245599 59.97798419 -42.79182373 65.83094913 -48.66304421 71.6820823 C-55.34894723 78.34560784 -62.02915222 85.01483322 -68.70889044 91.68453765 C-82.44544063 105.4001993 -96.18911136 119.10870559 -109.9375 132.8125 C-104.83356536 138.99024843 -99.25601542 144.6158945 -93.57348633 150.25830078 C-92.53291519 151.29530966 -91.49258259 152.33255796 -90.45246887 153.37002563 C-88.22438084 155.59159733 -85.99479317 157.81164877 -83.76404762 160.03055191 C-80.23522063 163.54099331 -76.71082388 167.05586014 -73.18717957 170.57150269 C-63.17094293 180.56365487 -53.14875968 190.54983017 -43.12231445 200.53173828 C-37.5756035 206.0538888 -32.03250224 211.5796374 -26.49323672 217.10925663 C-22.99244252 220.60351822 -19.48719503 224.0932301 -15.97855914 227.57961679 C-13.797722 229.7487122 -11.62108923 231.92198867 -9.44561577 234.09646225 C-8.43756017 235.10237339 -7.42778628 236.10656602 -6.41616058 237.10888672 C-5.03349729 238.47932336 -3.65761104 239.85658736 -2.28205872 241.23416138 C-1.51093656 242.00214113 -0.7398144 242.77012089 0.0546751 243.56137276 C4.13236646 248.13318682 5.64136203 251.55614866 5.41015625 257.59765625 C4.85225404 261.15193214 3.45144889 263.1720828 1.0625 265.8125 C-2.38637038 268.29889492 -5.13194519 269.0742135 -9.3125 268.9375 C-19.21753442 267.20919439 -26.88585212 256.01294184 -33.73779297 249.1574707 C-34.90792949 247.99033149 -36.07826902 246.82339579 -37.24879456 245.65664673 C-40.40573464 242.50848551 -43.55947672 239.35713988 -46.71235037 236.2049067 C-48.68377457 234.23419566 -50.65591008 232.26419933 -52.62829971 230.29445457 C-59.51253604 223.41944631 -66.3942082 216.54188353 -73.2734375 209.66186523 C-79.68325797 203.25144232 -86.09865418 196.846637 -92.51664817 190.44439822 C-98.03458593 184.93952371 -103.54867401 179.43081324 -109.05976403 173.9190833 C-112.3482754 170.6303169 -115.63832318 167.34312428 -118.93224716 164.05977821 C-122.0245471 160.97714053 -125.11203467 157.88976376 -128.19585991 154.79864883 C-129.32851692 153.66494416 -130.46288775 152.53294878 -131.59908104 151.40278816 C-133.1484252 149.86114002 -134.69149154 148.31346879 -136.23312378 146.76411438 C-137.09843657 145.89934636 -137.96374935 145.03457834 -138.85528374 144.14360523 C-142.4587582 140.10940459 -143.64031625 136.69723892 -143.39526367 131.33178711 C-141.77522609 122.41596426 -130.65524796 114.22463819 -124.41088867 108.02514648 C-122.60418409 106.2293093 -120.80860115 104.42283317 -119.01367188 102.61523438 C-117.86782946 101.4707111 -116.72136813 100.32680705 -115.57421875 99.18359375 C-115.03778244 98.64310898 -114.50134613 98.10262421 -113.94865417 97.54576111 C-110.16750672 93.8125 -110.16750672 93.8125 -107.9375 93.8125 C-107.66621025 93.21644833 -107.3949205 92.62039665 -107.11540985 92.00628281 C-105.95470725 89.84454741 -104.81540095 88.4390117 -103.09094238 86.7119751 C-102.51050674 86.12589981 -101.93007111 85.53982452 -101.33204651 84.93598938 C-100.69717819 84.30516953 -100.06230988 83.67434967 -99.40820312 83.02441406 C-98.73812729 82.35083359 -98.06805145 81.67725311 -97.37767029 80.98326111 C-95.16303349 78.75982646 -92.9411667 76.54378134 -90.71875 74.328125 C-89.17910957 72.78713768 -87.63976616 71.24585354 -86.10070801 69.70428467 C-82.87588404 66.47651234 -79.6474702 63.25238528 -76.41650391 60.03076172 C-72.26661175 55.89228296 -68.12578703 51.74486601 -63.98758698 47.59469986 C-60.81201254 44.41191544 -57.63171106 41.23388898 -54.44993591 38.05730438 C-52.92057782 36.52928418 -51.39271427 34.99976668 -49.86634827 33.46875763 C-47.73795316 31.33530943 -45.60329774 29.20833432 -43.46679688 27.08300781 C-42.83192856 26.44409103 -42.19706024 25.80517426 -41.54295349 25.14689636 C-37.16602992 20.8125 -37.16602992 20.8125 -34.9375 20.8125 C-34.9375 20.1525 -34.9375 19.4925 -34.9375 18.8125 C-34.2775 18.8125 -33.6175 18.8125 -32.9375 18.8125 C-32.9375 18.1525 -32.9375 17.4925 -32.9375 16.8125 C-32.2775 16.8125 -31.6175 16.8125 -30.9375 16.8125 C-30.9375 16.1525 -30.9375 15.4925 -30.9375 14.8125 C-30.2775 14.8125 -29.6175 14.8125 -28.9375 14.8125 C-28.6075 13.8225 -28.2775 12.8325 -27.9375 11.8125 C-27.2775 11.8125 -26.6175 11.8125 -25.9375 11.8125 C-25.9375 11.1525 -25.9375 10.4925 -25.9375 9.8125 C-25.2775 9.8125 -24.6175 9.8125 -23.9375 9.8125 C-23.5353125 8.8534375 -23.5353125 8.8534375 -23.125 7.875 C-21.9375 5.8125 -21.9375 5.8125 -18.9375 4.8125 C-18.9375 4.1525 -18.9375 3.4925 -18.9375 2.8125 C-13.37242452 -2.16677806 -6.9223334 -2.7983901 0 0 Z " fill="#221E1F" transform="translate(327.9375,122.1875)"/>
</svg>
