<svg width="211" height="231" viewBox="0 0 211 231" fill="none" xmlns="http://www.w3.org/2000/svg">
<path d="M169.265 0.73056C168.084 0.0150855 166.547 0.392366 165.832 1.57324C165.116 2.75411 165.494 4.29141 166.674 5.00688L169.265 0.73056ZM195.704 111.183L193.552 109.91L195.704 111.183ZM120.567 141.826L121.582 139.542L120.567 141.826ZM102.426 72.6008L100.321 71.2527L102.426 72.6008ZM163.589 62.8859L162.244 64.9929L163.589 62.8859ZM3.39472 176.352C2.01482 176.399 0.93462 177.556 0.982023 178.936L1.75449 201.423C1.80189 202.803 2.95895 203.883 4.33885 203.836C5.71874 203.788 6.79895 202.631 6.75154 201.251L6.06491 181.263L26.0531 180.576C27.433 180.529 28.5132 179.372 28.4658 177.992C28.4184 176.612 27.2614 175.532 25.8815 175.579L3.39472 176.352ZM3.48055 178.85C1.77451 180.678 1.77459 180.678 1.77467 180.678C1.77471 180.678 1.77479 180.678 1.77487 180.678C1.77502 180.678 1.77521 180.678 1.77544 180.679C1.77589 180.679 1.77647 180.68 1.7772 180.68C1.77865 180.682 1.78066 180.683 1.78323 180.686C1.78837 180.691 1.79572 180.697 1.80529 180.706C1.82441 180.724 1.85235 180.75 1.88895 180.784C1.96214 180.852 2.06998 180.951 2.21121 181.081C2.49367 181.339 2.90975 181.718 3.44948 182.203C4.52885 183.173 6.10323 184.566 8.0928 186.271L11.3467 182.475C9.38931 180.797 7.84409 179.429 6.79061 178.483C6.2639 178.01 5.86024 177.643 5.58955 177.394C5.45422 177.27 5.35214 177.176 5.28456 177.114C5.25077 177.083 5.2256 177.059 5.20922 177.044C5.20103 177.036 5.19504 177.031 5.19126 177.027C5.18937 177.025 5.18803 177.024 5.18725 177.023C5.18686 177.023 5.18661 177.023 5.1865 177.023C5.18644 177.023 5.18642 177.023 5.18644 177.023C5.18644 177.023 5.18648 177.023 5.18648 177.023C5.18653 177.023 5.18658 177.023 3.48055 178.85ZM21.1576 196.895C25.2765 200.073 29.8814 203.466 34.7943 206.823L37.6151 202.695C32.7947 199.401 28.2681 196.066 24.2117 192.937L21.1576 196.895ZM49.0811 215.849C54.0373 218.708 59.1341 221.345 64.2268 223.551L66.2138 218.962C61.3323 216.848 56.4081 214.304 51.5796 211.518L49.0811 215.849ZM80.5595 228.932C83.5025 229.549 86.4097 229.937 89.2465 230.041L89.4302 225.044C86.9191 224.952 84.2962 224.607 81.5855 224.039L80.5595 228.932ZM89.2465 230.041C91.5806 230.127 93.9408 230.143 96.3178 230.089L96.203 225.09C93.9248 225.142 91.6642 225.126 89.4302 225.044L89.2465 230.041ZM110.403 228.94C115.044 228.288 119.686 227.361 124.265 226.145L122.982 221.313C118.603 222.475 114.157 223.364 109.707 223.989L110.403 228.94ZM137.694 221.644C142.08 219.844 146.342 217.742 150.413 215.324L147.86 211.025C144.012 213.31 139.97 215.305 135.796 217.019L137.694 221.644ZM162.03 207.075C165.651 204.011 169.013 200.618 172.049 196.882L168.168 193.729C165.338 197.211 162.196 200.385 158.8 203.259L162.03 207.075ZM179.948 184.941C181.05 182.854 182.063 180.689 182.98 178.446L178.352 176.554C177.497 178.646 176.552 180.663 175.526 182.607L179.948 184.941ZM182.98 178.446C183.961 176.047 184.878 173.564 185.728 171.012L180.984 169.432C180.168 171.884 179.289 174.262 178.352 176.554L182.98 178.446ZM189.825 155.747C190.887 150.656 191.692 145.423 192.212 140.144L187.236 139.654C186.734 144.754 185.956 149.81 184.93 154.726L189.825 155.747ZM192.885 124.358C192.807 119.019 192.406 113.722 191.65 108.564L186.703 109.289C187.425 114.213 187.81 119.292 187.885 124.431L192.885 124.358ZM188.102 93.0431C186.423 87.8271 184.271 82.8891 181.594 78.3713L177.292 80.9202C179.755 85.0766 181.763 89.6661 183.342 94.5748L188.102 93.0431ZM171.427 65.7517C169.421 63.9273 167.258 62.2627 164.935 60.7788L162.244 64.9929C164.323 66.3205 166.26 67.8118 168.063 69.4509L171.427 65.7517ZM164.935 60.7788C162.486 59.2149 159.74 57.9532 156.815 56.9751L155.23 61.7171C157.827 62.5856 160.19 63.6817 162.244 64.9929L164.935 60.7788ZM139.529 54.326C133.722 54.3145 127.801 55.0954 122.287 56.6615L123.653 61.4713C128.696 60.0389 134.153 59.3154 139.519 59.326L139.529 54.326ZM106.472 64.4913C104.057 66.4423 101.96 68.6938 100.321 71.2527L104.532 73.9489C105.843 71.9014 107.559 70.0409 109.614 68.381L106.472 64.4913ZM100.321 71.2527C98.9829 73.3427 97.7772 75.4098 96.7001 77.4524L101.123 79.7846C102.131 77.8725 103.265 75.9267 104.532 73.9489L100.321 71.2527ZM91.3257 90.8962C89.9661 95.9631 89.4395 100.831 89.6764 105.458L94.6699 105.203C94.4618 101.138 94.9202 96.7935 96.1549 92.192L91.3257 90.8962ZM93.1574 119.834C95.1917 124.302 98.0419 128.352 101.551 131.94L105.126 128.444C101.987 125.234 99.4821 121.659 97.708 117.762L93.1574 119.834ZM113.099 140.822C115.15 142.016 117.306 143.113 119.552 144.111L121.582 139.542C119.494 138.614 117.501 137.599 115.614 136.5L113.099 140.822ZM119.552 144.111C121.984 145.191 124.418 146.085 126.847 146.8L128.259 142.004C126.045 141.352 123.818 140.535 121.582 139.542L119.552 144.111ZM142.25 149.002C147.521 148.967 152.671 148.13 157.629 146.593L156.148 141.817C151.638 143.215 146.976 143.971 142.218 144.002L142.25 149.002ZM171.688 140.089C175.968 137.414 180.011 134.202 183.763 130.543L180.272 126.964C176.757 130.391 172.994 133.377 169.038 135.849L171.688 140.089ZM193.692 118.876C195.154 116.814 196.544 114.671 197.855 112.457L193.552 109.91C192.31 112.008 190.995 114.035 189.613 115.984L193.692 118.876ZM197.855 112.457C199.262 110.081 200.54 107.734 201.696 105.416L197.221 103.185C196.121 105.392 194.9 107.634 193.552 109.91L197.855 112.457ZM207.644 90.4737C209.273 84.979 210.221 79.6871 210.6 74.6103L205.614 74.2383C205.262 78.9518 204.38 83.892 202.85 89.052L207.644 90.4737ZM209.895 58.4285C208.981 52.874 207.418 47.6845 205.428 42.8798L200.808 44.7939C202.666 49.2761 204.115 54.0965 204.961 59.24L209.895 58.4285ZM197.763 28.6926C194.567 23.9397 191.089 19.7612 187.704 16.1858L184.073 19.6234C187.3 23.0309 190.596 26.9946 193.614 31.4827L197.763 28.6926ZM175.862 5.41577C173.91 3.89076 172.277 2.72948 171.125 1.94491C170.549 1.55253 170.092 1.25409 169.776 1.05121C169.618 0.949768 169.494 0.872191 169.408 0.818687C169.365 0.791935 169.332 0.771197 169.308 0.756502C169.296 0.749154 169.286 0.743315 169.279 0.738991C169.276 0.736829 169.273 0.735045 169.27 0.733638C169.269 0.732936 169.268 0.732329 169.267 0.731815C169.267 0.731558 169.267 0.731325 169.266 0.731116C169.266 0.731011 169.266 0.730873 169.266 0.730819C169.266 0.730686 169.265 0.73056 167.97 2.86872C166.674 5.00688 166.674 5.00677 166.674 5.00665C166.674 5.00663 166.674 5.00652 166.674 5.00647C166.674 5.00635 166.673 5.00626 166.673 5.00619C166.673 5.00605 166.673 5.00601 166.673 5.00606C166.673 5.00616 166.674 5.00663 166.675 5.00747C166.678 5.00916 166.683 5.01234 166.691 5.01701C166.706 5.02634 166.731 5.04162 166.765 5.06282C166.833 5.10523 166.938 5.17131 167.078 5.26085C167.357 5.43996 167.775 5.71281 168.311 6.07774C169.383 6.80777 170.927 7.90508 172.784 9.35606L175.862 5.41577Z" fill="#575757"/>
</svg>
