<svg width="25" height="25" viewBox="0 0 25 25" fill="none" xmlns="http://www.w3.org/2000/svg">
<path d="M18.0278 7.9499C18.0278 7.68469 17.9224 7.43033 17.7349 7.2428C17.5473 7.05526 17.293 6.9499 17.0278 6.9499L9.02777 6.8999C8.76255 6.8999 8.5082 7.00526 8.32066 7.1928C8.13313 7.38033 8.02777 7.63469 8.02777 7.8999C8.02777 8.16512 8.13313 8.41947 8.32066 8.60701C8.5082 8.79455 8.76255 8.8999 9.02777 8.8999H14.5878L6.31777 17.1899C6.22404 17.2829 6.14965 17.3935 6.09888 17.5153C6.04811 17.6372 6.02197 17.7679 6.02197 17.8999C6.02197 18.0319 6.04811 18.1626 6.09888 18.2845C6.14965 18.4063 6.22404 18.5169 6.31777 18.6099C6.41073 18.7036 6.52133 18.778 6.64319 18.8288C6.76505 18.8796 6.89576 18.9057 7.02777 18.9057C7.15978 18.9057 7.29049 18.8796 7.41235 18.8288C7.53421 18.778 7.64481 18.7036 7.73777 18.6099L16.0278 10.3199V15.8999C16.0278 16.1651 16.1331 16.4195 16.3207 16.607C16.5082 16.7945 16.7626 16.8999 17.0278 16.8999C17.293 16.8999 17.5473 16.7945 17.7349 16.607C17.9224 16.4195 18.0278 16.1651 18.0278 15.8999V7.9499Z" fill="#4B859F"/>
</svg>
