<svg width="719" height="900" viewBox="0 0 719 900" fill="none" xmlns="http://www.w3.org/2000/svg">
<g clip-path="url(#clip0_781_890)">
<rect width="719" height="900" fill="url(#paint0_linear_781_890)"/>
<circle opacity="0.2" cx="54.5" cy="42.5" r="102.5" fill="#A5C2CF"/>
<circle opacity="0.2" cx="55" cy="42" r="154" fill="#A5C2CF"/>
<circle opacity="0.2" cx="55" cy="42" r="215" fill="#A5C2CF"/>
<circle opacity="0.2" cx="55" cy="42" r="299" fill="#A5C2CF"/>
<circle opacity="0.1" cx="641.875" cy="704.625" r="76.875" fill="#FECC01"/>
<circle opacity="0.1" cx="642.25" cy="704.25" r="115.5" fill="#FECC01"/>
<circle opacity="0.1" cx="642.25" cy="704.25" r="161.25" fill="#FECC01"/>
<circle opacity="0.1" cx="642.25" cy="704.25" r="224.25" fill="#FECC01"/>
<path d="M120 0C324.612 98.2263 640.619 220.856 371.632 413.904C102.646 606.952 334.648 821.235 716 900" stroke="white" stroke-width="20" stroke-linecap="round" stroke-dasharray="70 50"/>
<path d="M459.648 602.695H466.047V611.297C465.148 611.594 464.219 611.824 463.258 611.988C462.297 612.152 461.219 612.234 460.023 612.234C458.281 612.234 456.805 611.891 455.594 611.203C454.391 610.508 453.477 609.504 452.852 608.191C452.227 606.871 451.914 605.281 451.914 603.422C451.914 601.633 452.262 600.082 452.957 598.77C453.652 597.449 454.664 596.43 455.992 595.711C457.32 594.984 458.93 594.621 460.82 594.621C461.75 594.621 462.648 594.715 463.516 594.902C464.391 595.082 465.191 595.332 465.918 595.652L464.934 597.973C464.355 597.699 463.707 597.469 462.988 597.281C462.27 597.094 461.523 597 460.75 597C459.523 597 458.465 597.266 457.574 597.797C456.691 598.328 456.012 599.078 455.535 600.047C455.059 601.008 454.82 602.145 454.82 603.457C454.82 604.73 455.012 605.848 455.395 606.809C455.777 607.77 456.375 608.52 457.188 609.059C458.008 609.59 459.066 609.855 460.363 609.855C461.012 609.855 461.562 609.82 462.016 609.75C462.469 609.68 462.887 609.602 463.27 609.516V605.098H459.648V602.695ZM475.035 598.781C476.191 598.781 477.184 599.02 478.012 599.496C478.84 599.973 479.477 600.648 479.922 601.523C480.367 602.398 480.59 603.445 480.59 604.664V606.141H471.93C471.961 607.398 472.297 608.367 472.938 609.047C473.586 609.727 474.492 610.066 475.656 610.066C476.484 610.066 477.227 609.988 477.883 609.832C478.547 609.668 479.23 609.43 479.934 609.117V611.355C479.285 611.66 478.625 611.883 477.953 612.023C477.281 612.164 476.477 612.234 475.539 612.234C474.266 612.234 473.145 611.988 472.176 611.496C471.215 610.996 470.461 610.254 469.914 609.27C469.375 608.285 469.105 607.062 469.105 605.602C469.105 604.148 469.352 602.914 469.844 601.898C470.336 600.883 471.027 600.109 471.918 599.578C472.809 599.047 473.848 598.781 475.035 598.781ZM475.035 600.855C474.168 600.855 473.465 601.137 472.926 601.699C472.395 602.262 472.082 603.086 471.988 604.172H477.895C477.887 603.523 477.777 602.949 477.566 602.449C477.363 601.949 477.051 601.559 476.629 601.277C476.215 600.996 475.684 600.855 475.035 600.855ZM488.523 610.008C488.883 610.008 489.238 609.977 489.59 609.914C489.941 609.844 490.262 609.762 490.551 609.668V611.754C490.246 611.887 489.852 612 489.367 612.094C488.883 612.188 488.379 612.234 487.855 612.234C487.121 612.234 486.461 612.113 485.875 611.871C485.289 611.621 484.824 611.195 484.48 610.594C484.137 609.992 483.965 609.16 483.965 608.098V601.125H482.195V599.895L484.094 598.922L484.996 596.145H486.73V599.027H490.445V601.125H486.73V608.062C486.73 608.719 486.895 609.207 487.223 609.527C487.551 609.848 487.984 610.008 488.523 610.008ZM508.141 608.297C508.141 609.148 507.934 609.867 507.52 610.453C507.105 611.039 506.5 611.484 505.703 611.789C504.914 612.086 503.945 612.234 502.797 612.234C501.891 612.234 501.109 612.168 500.453 612.035C499.805 611.91 499.191 611.715 498.613 611.449V609.07C499.23 609.359 499.922 609.609 500.688 609.82C501.461 610.031 502.191 610.137 502.879 610.137C503.785 610.137 504.438 609.996 504.836 609.715C505.234 609.426 505.434 609.043 505.434 608.566C505.434 608.285 505.352 608.035 505.188 607.816C505.031 607.59 504.734 607.359 504.297 607.125C503.867 606.883 503.234 606.594 502.398 606.258C501.578 605.93 500.887 605.602 500.324 605.273C499.762 604.945 499.336 604.551 499.047 604.09C498.758 603.621 498.613 603.023 498.613 602.297C498.613 601.148 499.066 600.277 499.973 599.684C500.887 599.082 502.094 598.781 503.594 598.781C504.391 598.781 505.141 598.863 505.844 599.027C506.555 599.184 507.25 599.414 507.93 599.719L507.062 601.793C506.477 601.535 505.887 601.324 505.293 601.16C504.707 600.988 504.109 600.902 503.5 600.902C502.789 600.902 502.246 601.012 501.871 601.23C501.504 601.449 501.32 601.762 501.32 602.168C501.32 602.473 501.41 602.73 501.59 602.941C501.77 603.152 502.078 603.363 502.516 603.574C502.961 603.785 503.578 604.047 504.367 604.359C505.141 604.656 505.809 604.969 506.371 605.297C506.941 605.617 507.379 606.012 507.684 606.48C507.988 606.949 508.141 607.555 508.141 608.297ZM516.344 612.234C515.117 612.234 514.055 611.996 513.156 611.52C512.258 611.043 511.566 610.312 511.082 609.328C510.598 608.344 510.355 607.094 510.355 605.578C510.355 604 510.621 602.711 511.152 601.711C511.684 600.711 512.418 599.973 513.355 599.496C514.301 599.02 515.383 598.781 516.602 598.781C517.375 598.781 518.074 598.859 518.699 599.016C519.332 599.164 519.867 599.348 520.305 599.566L519.484 601.77C519.008 601.574 518.52 601.41 518.02 601.277C517.52 601.145 517.039 601.078 516.578 601.078C515.82 601.078 515.188 601.246 514.68 601.582C514.18 601.918 513.805 602.418 513.555 603.082C513.312 603.746 513.191 604.57 513.191 605.555C513.191 606.508 513.316 607.312 513.566 607.969C513.816 608.617 514.188 609.109 514.68 609.445C515.172 609.773 515.777 609.938 516.496 609.938C517.207 609.938 517.844 609.852 518.406 609.68C518.969 609.508 519.5 609.285 520 609.012V611.402C519.508 611.684 518.98 611.891 518.418 612.023C517.855 612.164 517.164 612.234 516.344 612.234ZM525.801 593.766V598.348C525.801 598.824 525.785 599.289 525.754 599.742C525.73 600.195 525.703 600.547 525.672 600.797H525.824C526.098 600.344 526.434 599.973 526.832 599.684C527.23 599.387 527.676 599.164 528.168 599.016C528.668 598.867 529.199 598.793 529.762 598.793C530.754 598.793 531.598 598.961 532.293 599.297C532.988 599.625 533.52 600.137 533.887 600.832C534.262 601.527 534.449 602.43 534.449 603.539V612H531.695V604.055C531.695 603.047 531.488 602.293 531.074 601.793C530.66 601.285 530.02 601.031 529.152 601.031C528.316 601.031 527.652 601.207 527.16 601.559C526.676 601.902 526.328 602.414 526.117 603.094C525.906 603.766 525.801 604.586 525.801 605.555V612H523.047V593.766H525.801ZM543.473 598.781C544.629 598.781 545.621 599.02 546.449 599.496C547.277 599.973 547.914 600.648 548.359 601.523C548.805 602.398 549.027 603.445 549.027 604.664V606.141H540.367C540.398 607.398 540.734 608.367 541.375 609.047C542.023 609.727 542.93 610.066 544.094 610.066C544.922 610.066 545.664 609.988 546.32 609.832C546.984 609.668 547.668 609.43 548.371 609.117V611.355C547.723 611.66 547.062 611.883 546.391 612.023C545.719 612.164 544.914 612.234 543.977 612.234C542.703 612.234 541.582 611.988 540.613 611.496C539.652 610.996 538.898 610.254 538.352 609.27C537.812 608.285 537.543 607.062 537.543 605.602C537.543 604.148 537.789 602.914 538.281 601.898C538.773 600.883 539.465 600.109 540.355 599.578C541.246 599.047 542.285 598.781 543.473 598.781ZM543.473 600.855C542.605 600.855 541.902 601.137 541.363 601.699C540.832 602.262 540.52 603.086 540.426 604.172H546.332C546.324 603.523 546.215 602.949 546.004 602.449C545.801 601.949 545.488 601.559 545.066 601.277C544.652 600.996 544.121 600.855 543.473 600.855ZM556.492 612.234C554.945 612.234 553.703 611.672 552.766 610.547C551.836 609.414 551.371 607.746 551.371 605.543C551.371 603.316 551.844 601.633 552.789 600.492C553.742 599.352 554.996 598.781 556.551 598.781C557.207 598.781 557.781 598.871 558.273 599.051C558.766 599.223 559.188 599.457 559.539 599.754C559.898 600.051 560.203 600.383 560.453 600.75H560.582C560.543 600.508 560.496 600.16 560.441 599.707C560.395 599.246 560.371 598.82 560.371 598.43V593.766H563.137V612H560.98L560.488 610.23H560.371C560.137 610.605 559.84 610.945 559.48 611.25C559.129 611.547 558.707 611.785 558.215 611.965C557.73 612.145 557.156 612.234 556.492 612.234ZM557.266 609.996C558.445 609.996 559.277 609.656 559.762 608.977C560.246 608.297 560.496 607.277 560.512 605.918V605.555C560.512 604.102 560.277 602.988 559.809 602.215C559.34 601.434 558.484 601.043 557.242 601.043C556.25 601.043 555.492 601.445 554.969 602.25C554.453 603.047 554.195 604.16 554.195 605.59C554.195 607.02 554.453 608.113 554.969 608.871C555.492 609.621 556.258 609.996 557.266 609.996ZM578.395 599.027V612H576.227L575.852 610.254H575.699C575.426 610.699 575.078 611.07 574.656 611.367C574.234 611.656 573.766 611.871 573.25 612.012C572.734 612.16 572.191 612.234 571.621 612.234C570.645 612.234 569.809 612.07 569.113 611.742C568.426 611.406 567.898 610.891 567.531 610.195C567.164 609.5 566.98 608.602 566.98 607.5V599.027H569.746V606.984C569.746 607.992 569.949 608.746 570.355 609.246C570.77 609.746 571.41 609.996 572.277 609.996C573.113 609.996 573.777 609.824 574.27 609.48C574.762 609.137 575.109 608.629 575.312 607.957C575.523 607.285 575.629 606.461 575.629 605.484V599.027H578.395ZM585.109 612H582.344V593.766H585.109V612ZM594.215 598.781C595.371 598.781 596.363 599.02 597.191 599.496C598.02 599.973 598.656 600.648 599.102 601.523C599.547 602.398 599.77 603.445 599.77 604.664V606.141H591.109C591.141 607.398 591.477 608.367 592.117 609.047C592.766 609.727 593.672 610.066 594.836 610.066C595.664 610.066 596.406 609.988 597.062 609.832C597.727 609.668 598.41 609.43 599.113 609.117V611.355C598.465 611.66 597.805 611.883 597.133 612.023C596.461 612.164 595.656 612.234 594.719 612.234C593.445 612.234 592.324 611.988 591.355 611.496C590.395 610.996 589.641 610.254 589.094 609.27C588.555 608.285 588.285 607.062 588.285 605.602C588.285 604.148 588.531 602.914 589.023 601.898C589.516 600.883 590.207 600.109 591.098 599.578C591.988 599.047 593.027 598.781 594.215 598.781ZM594.215 600.855C593.348 600.855 592.645 601.137 592.105 601.699C591.574 602.262 591.262 603.086 591.168 604.172H597.074C597.066 603.523 596.957 602.949 596.746 602.449C596.543 601.949 596.23 601.559 595.809 601.277C595.395 600.996 594.863 600.855 594.215 600.855ZM611.594 608.297C611.594 609.148 611.387 609.867 610.973 610.453C610.559 611.039 609.953 611.484 609.156 611.789C608.367 612.086 607.398 612.234 606.25 612.234C605.344 612.234 604.562 612.168 603.906 612.035C603.258 611.91 602.645 611.715 602.066 611.449V609.07C602.684 609.359 603.375 609.609 604.141 609.82C604.914 610.031 605.645 610.137 606.332 610.137C607.238 610.137 607.891 609.996 608.289 609.715C608.688 609.426 608.887 609.043 608.887 608.566C608.887 608.285 608.805 608.035 608.641 607.816C608.484 607.59 608.188 607.359 607.75 607.125C607.32 606.883 606.688 606.594 605.852 606.258C605.031 605.93 604.34 605.602 603.777 605.273C603.215 604.945 602.789 604.551 602.5 604.09C602.211 603.621 602.066 603.023 602.066 602.297C602.066 601.148 602.52 600.277 603.426 599.684C604.34 599.082 605.547 598.781 607.047 598.781C607.844 598.781 608.594 598.863 609.297 599.027C610.008 599.184 610.703 599.414 611.383 599.719L610.516 601.793C609.93 601.535 609.34 601.324 608.746 601.16C608.16 600.988 607.562 600.902 606.953 600.902C606.242 600.902 605.699 601.012 605.324 601.23C604.957 601.449 604.773 601.762 604.773 602.168C604.773 602.473 604.863 602.73 605.043 602.941C605.223 603.152 605.531 603.363 605.969 603.574C606.414 603.785 607.031 604.047 607.82 604.359C608.594 604.656 609.262 604.969 609.824 605.297C610.395 605.617 610.832 606.012 611.137 606.48C611.441 606.949 611.594 607.555 611.594 608.297ZM625.633 610.008C625.992 610.008 626.348 609.977 626.699 609.914C627.051 609.844 627.371 609.762 627.66 609.668V611.754C627.355 611.887 626.961 612 626.477 612.094C625.992 612.188 625.488 612.234 624.965 612.234C624.23 612.234 623.57 612.113 622.984 611.871C622.398 611.621 621.934 611.195 621.59 610.594C621.246 609.992 621.074 609.16 621.074 608.098V601.125H619.305V599.895L621.203 598.922L622.105 596.145H623.84V599.027H627.555V601.125H623.84V608.062C623.84 608.719 624.004 609.207 624.332 609.527C624.66 609.848 625.094 610.008 625.633 610.008ZM633.051 593.766V598.348C633.051 598.824 633.035 599.289 633.004 599.742C632.98 600.195 632.953 600.547 632.922 600.797H633.074C633.348 600.344 633.684 599.973 634.082 599.684C634.48 599.387 634.926 599.164 635.418 599.016C635.918 598.867 636.449 598.793 637.012 598.793C638.004 598.793 638.848 598.961 639.543 599.297C640.238 599.625 640.77 600.137 641.137 600.832C641.512 601.527 641.699 602.43 641.699 603.539V612H638.945V604.055C638.945 603.047 638.738 602.293 638.324 601.793C637.91 601.285 637.27 601.031 636.402 601.031C635.566 601.031 634.902 601.207 634.41 601.559C633.926 601.902 633.578 602.414 633.367 603.094C633.156 603.766 633.051 604.586 633.051 605.555V612H630.297V593.766H633.051ZM650.641 598.781C652.281 598.781 653.52 599.145 654.355 599.871C655.199 600.598 655.621 601.73 655.621 603.27V612H653.664L653.137 610.16H653.043C652.676 610.629 652.297 611.016 651.906 611.32C651.516 611.625 651.062 611.852 650.547 612C650.039 612.156 649.418 612.234 648.684 612.234C647.91 612.234 647.219 612.094 646.609 611.812C646 611.523 645.52 611.086 645.168 610.5C644.816 609.914 644.641 609.172 644.641 608.273C644.641 606.938 645.137 605.934 646.129 605.262C647.129 604.59 648.637 604.219 650.652 604.148L652.902 604.066V603.387C652.902 602.488 652.691 601.848 652.27 601.465C651.855 601.082 651.27 600.891 650.512 600.891C649.863 600.891 649.234 600.984 648.625 601.172C648.016 601.359 647.422 601.59 646.844 601.863L645.953 599.918C646.586 599.582 647.305 599.309 648.109 599.098C648.922 598.887 649.766 598.781 650.641 598.781ZM652.891 605.801L651.215 605.859C649.84 605.906 648.875 606.141 648.32 606.562C647.766 606.984 647.488 607.562 647.488 608.297C647.488 608.938 647.68 609.406 648.062 609.703C648.445 609.992 648.949 610.137 649.574 610.137C650.527 610.137 651.316 609.867 651.941 609.328C652.574 608.781 652.891 607.98 652.891 606.926V605.801ZM664.305 610.008C664.664 610.008 665.02 609.977 665.371 609.914C665.723 609.844 666.043 609.762 666.332 609.668V611.754C666.027 611.887 665.633 612 665.148 612.094C664.664 612.188 664.16 612.234 663.637 612.234C662.902 612.234 662.242 612.113 661.656 611.871C661.07 611.621 660.605 611.195 660.262 610.594C659.918 609.992 659.746 609.16 659.746 608.098V601.125H657.977V599.895L659.875 598.922L660.777 596.145H662.512V599.027H666.227V601.125H662.512V608.062C662.512 608.719 662.676 609.207 663.004 609.527C663.332 609.848 663.766 610.008 664.305 610.008ZM422.02 636.988L420.379 630.953C420.301 630.656 420.207 630.297 420.098 629.875C419.988 629.453 419.879 629.02 419.77 628.574C419.66 628.121 419.559 627.703 419.465 627.32C419.379 626.938 419.312 626.641 419.266 626.43H419.172C419.133 626.641 419.07 626.938 418.984 627.32C418.898 627.703 418.801 628.121 418.691 628.574C418.582 629.027 418.473 629.469 418.363 629.898C418.262 630.328 418.168 630.695 418.082 631L416.359 636.988H413.336L409.703 624.016H412.492L414.18 630.461C414.289 630.898 414.395 631.371 414.496 631.879C414.605 632.387 414.699 632.871 414.777 633.332C414.855 633.793 414.914 634.172 414.953 634.469H415.047C415.078 634.258 415.121 633.992 415.176 633.672C415.23 633.344 415.293 633.004 415.363 632.652C415.434 632.293 415.504 631.957 415.574 631.645C415.645 631.324 415.711 631.066 415.773 630.871L417.766 624.016H420.777L422.688 630.871C422.773 631.168 422.867 631.543 422.969 631.996C423.07 632.441 423.16 632.891 423.238 633.344C423.324 633.789 423.379 634.16 423.402 634.457H423.496C423.527 634.191 423.582 633.832 423.66 633.379C423.746 632.918 423.844 632.43 423.953 631.914C424.062 631.391 424.176 630.906 424.293 630.461L426.016 624.016H428.758L425.102 636.988H422.02ZM442.469 630.484C442.469 631.562 442.328 632.52 442.047 633.355C441.766 634.191 441.355 634.898 440.816 635.477C440.277 636.047 439.629 636.484 438.871 636.789C438.113 637.086 437.258 637.234 436.305 637.234C435.414 637.234 434.598 637.086 433.855 636.789C433.113 636.484 432.469 636.047 431.922 635.477C431.383 634.898 430.965 634.191 430.668 633.355C430.371 632.52 430.223 631.562 430.223 630.484C430.223 629.055 430.469 627.844 430.961 626.852C431.461 625.852 432.172 625.09 433.094 624.566C434.016 624.043 435.113 623.781 436.387 623.781C437.582 623.781 438.637 624.043 439.551 624.566C440.465 625.09 441.18 625.852 441.695 626.852C442.211 627.852 442.469 629.062 442.469 630.484ZM433.059 630.484C433.059 631.43 433.172 632.238 433.398 632.91C433.633 633.582 433.992 634.098 434.477 634.457C434.961 634.809 435.586 634.984 436.352 634.984C437.117 634.984 437.742 634.809 438.227 634.457C438.711 634.098 439.066 633.582 439.293 632.91C439.52 632.238 439.633 631.43 439.633 630.484C439.633 629.539 439.52 628.738 439.293 628.082C439.066 627.418 438.711 626.914 438.227 626.57C437.742 626.219 437.113 626.043 436.34 626.043C435.199 626.043 434.367 626.426 433.844 627.191C433.32 627.957 433.059 629.055 433.059 630.484ZM452.207 623.781C452.426 623.781 452.664 623.793 452.922 623.816C453.18 623.84 453.402 623.871 453.59 623.91L453.332 626.488C453.168 626.441 452.965 626.406 452.723 626.383C452.488 626.359 452.277 626.348 452.09 626.348C451.598 626.348 451.129 626.43 450.684 626.594C450.238 626.75 449.844 626.992 449.5 627.32C449.156 627.641 448.887 628.043 448.691 628.527C448.496 629.012 448.398 629.574 448.398 630.215V637H445.633V624.027H447.789L448.164 626.312H448.293C448.551 625.852 448.871 625.43 449.254 625.047C449.637 624.664 450.074 624.359 450.566 624.133C451.066 623.898 451.613 623.781 452.207 623.781ZM458.746 618.766V627.578C458.746 627.977 458.73 628.414 458.699 628.891C458.668 629.359 458.637 629.801 458.605 630.215H458.664C458.867 629.941 459.109 629.621 459.391 629.254C459.68 628.887 459.953 628.566 460.211 628.293L464.172 624.027H467.336L462.145 629.605L467.676 637H464.441L460.293 631.305L458.746 632.629V637H455.992V618.766H458.746ZM481.07 623.781C482.711 623.781 483.949 624.145 484.785 624.871C485.629 625.598 486.051 626.73 486.051 628.27V637H484.094L483.566 635.16H483.473C483.105 635.629 482.727 636.016 482.336 636.32C481.945 636.625 481.492 636.852 480.977 637C480.469 637.156 479.848 637.234 479.113 637.234C478.34 637.234 477.648 637.094 477.039 636.812C476.43 636.523 475.949 636.086 475.598 635.5C475.246 634.914 475.07 634.172 475.07 633.273C475.07 631.938 475.566 630.934 476.559 630.262C477.559 629.59 479.066 629.219 481.082 629.148L483.332 629.066V628.387C483.332 627.488 483.121 626.848 482.699 626.465C482.285 626.082 481.699 625.891 480.941 625.891C480.293 625.891 479.664 625.984 479.055 626.172C478.445 626.359 477.852 626.59 477.273 626.863L476.383 624.918C477.016 624.582 477.734 624.309 478.539 624.098C479.352 623.887 480.195 623.781 481.07 623.781ZM483.32 630.801L481.645 630.859C480.27 630.906 479.305 631.141 478.75 631.562C478.195 631.984 477.918 632.562 477.918 633.297C477.918 633.938 478.109 634.406 478.492 634.703C478.875 634.992 479.379 635.137 480.004 635.137C480.957 635.137 481.746 634.867 482.371 634.328C483.004 633.781 483.32 632.98 483.32 631.926V630.801ZM496.48 623.781C496.699 623.781 496.938 623.793 497.195 623.816C497.453 623.84 497.676 623.871 497.863 623.91L497.605 626.488C497.441 626.441 497.238 626.406 496.996 626.383C496.762 626.359 496.551 626.348 496.363 626.348C495.871 626.348 495.402 626.43 494.957 626.594C494.512 626.75 494.117 626.992 493.773 627.32C493.43 627.641 493.16 628.043 492.965 628.527C492.77 629.012 492.672 629.574 492.672 630.215V637H489.906V624.027H492.062L492.438 626.312H492.566C492.824 625.852 493.145 625.43 493.527 625.047C493.91 624.664 494.348 624.359 494.84 624.133C495.34 623.898 495.887 623.781 496.48 623.781ZM511.75 630.484C511.75 631.562 511.609 632.52 511.328 633.355C511.047 634.191 510.637 634.898 510.098 635.477C509.559 636.047 508.91 636.484 508.152 636.789C507.395 637.086 506.539 637.234 505.586 637.234C504.695 637.234 503.879 637.086 503.137 636.789C502.395 636.484 501.75 636.047 501.203 635.477C500.664 634.898 500.246 634.191 499.949 633.355C499.652 632.52 499.504 631.562 499.504 630.484C499.504 629.055 499.75 627.844 500.242 626.852C500.742 625.852 501.453 625.09 502.375 624.566C503.297 624.043 504.395 623.781 505.668 623.781C506.863 623.781 507.918 624.043 508.832 624.566C509.746 625.09 510.461 625.852 510.977 626.852C511.492 627.852 511.75 629.062 511.75 630.484ZM502.34 630.484C502.34 631.43 502.453 632.238 502.68 632.91C502.914 633.582 503.273 634.098 503.758 634.457C504.242 634.809 504.867 634.984 505.633 634.984C506.398 634.984 507.023 634.809 507.508 634.457C507.992 634.098 508.348 633.582 508.574 632.91C508.801 632.238 508.914 631.43 508.914 630.484C508.914 629.539 508.801 628.738 508.574 628.082C508.348 627.418 507.992 626.914 507.508 626.57C507.023 626.219 506.395 626.043 505.621 626.043C504.48 626.043 503.648 626.426 503.125 627.191C502.602 627.957 502.34 629.055 502.34 630.484ZM526.223 624.027V637H524.055L523.68 635.254H523.527C523.254 635.699 522.906 636.07 522.484 636.367C522.062 636.656 521.594 636.871 521.078 637.012C520.562 637.16 520.02 637.234 519.449 637.234C518.473 637.234 517.637 637.07 516.941 636.742C516.254 636.406 515.727 635.891 515.359 635.195C514.992 634.5 514.809 633.602 514.809 632.5V624.027H517.574V631.984C517.574 632.992 517.777 633.746 518.184 634.246C518.598 634.746 519.238 634.996 520.105 634.996C520.941 634.996 521.605 634.824 522.098 634.48C522.59 634.137 522.938 633.629 523.141 632.957C523.352 632.285 523.457 631.461 523.457 630.484V624.027H526.223ZM536.934 623.781C538.395 623.781 539.531 624.16 540.344 624.918C541.164 625.668 541.574 626.875 541.574 628.539V637H538.82V629.055C538.82 628.047 538.613 627.293 538.199 626.793C537.785 626.285 537.145 626.031 536.277 626.031C535.02 626.031 534.145 626.418 533.652 627.191C533.168 627.965 532.926 629.086 532.926 630.555V637H530.172V624.027H532.316L532.703 625.785H532.855C533.137 625.332 533.484 624.961 533.898 624.672C534.32 624.375 534.789 624.152 535.305 624.004C535.828 623.855 536.371 623.781 536.934 623.781ZM549.789 637.234C548.242 637.234 547 636.672 546.062 635.547C545.133 634.414 544.668 632.746 544.668 630.543C544.668 628.316 545.141 626.633 546.086 625.492C547.039 624.352 548.293 623.781 549.848 623.781C550.504 623.781 551.078 623.871 551.57 624.051C552.062 624.223 552.484 624.457 552.836 624.754C553.195 625.051 553.5 625.383 553.75 625.75H553.879C553.84 625.508 553.793 625.16 553.738 624.707C553.691 624.246 553.668 623.82 553.668 623.43V618.766H556.434V637H554.277L553.785 635.23H553.668C553.434 635.605 553.137 635.945 552.777 636.25C552.426 636.547 552.004 636.785 551.512 636.965C551.027 637.145 550.453 637.234 549.789 637.234ZM550.562 634.996C551.742 634.996 552.574 634.656 553.059 633.977C553.543 633.297 553.793 632.277 553.809 630.918V630.555C553.809 629.102 553.574 627.988 553.105 627.215C552.637 626.434 551.781 626.043 550.539 626.043C549.547 626.043 548.789 626.445 548.266 627.25C547.75 628.047 547.492 629.16 547.492 630.59C547.492 632.02 547.75 633.113 548.266 633.871C548.789 634.621 549.555 634.996 550.562 634.996ZM564.66 624.027H567.66L570.32 631.434C570.438 631.77 570.543 632.102 570.637 632.43C570.738 632.75 570.824 633.066 570.895 633.379C570.973 633.691 571.035 634.004 571.082 634.316H571.152C571.23 633.91 571.34 633.457 571.48 632.957C571.629 632.449 571.793 631.941 571.973 631.434L574.527 624.027H577.492L571.926 638.781C571.605 639.625 571.211 640.344 570.742 640.938C570.281 641.539 569.734 641.992 569.102 642.297C568.469 642.609 567.746 642.766 566.934 642.766C566.543 642.766 566.203 642.742 565.914 642.695C565.625 642.656 565.379 642.613 565.176 642.566V640.363C565.34 640.402 565.547 640.438 565.797 640.469C566.047 640.5 566.305 640.516 566.57 640.516C567.062 640.516 567.488 640.418 567.848 640.223C568.207 640.027 568.512 639.75 568.762 639.391C569.012 639.039 569.219 638.637 569.383 638.184L569.84 636.965L564.66 624.027ZM590.945 630.484C590.945 631.562 590.805 632.52 590.523 633.355C590.242 634.191 589.832 634.898 589.293 635.477C588.754 636.047 588.105 636.484 587.348 636.789C586.59 637.086 585.734 637.234 584.781 637.234C583.891 637.234 583.074 637.086 582.332 636.789C581.59 636.484 580.945 636.047 580.398 635.477C579.859 634.898 579.441 634.191 579.145 633.355C578.848 632.52 578.699 631.562 578.699 630.484C578.699 629.055 578.945 627.844 579.438 626.852C579.938 625.852 580.648 625.09 581.57 624.566C582.492 624.043 583.59 623.781 584.863 623.781C586.059 623.781 587.113 624.043 588.027 624.566C588.941 625.09 589.656 625.852 590.172 626.852C590.688 627.852 590.945 629.062 590.945 630.484ZM581.535 630.484C581.535 631.43 581.648 632.238 581.875 632.91C582.109 633.582 582.469 634.098 582.953 634.457C583.438 634.809 584.062 634.984 584.828 634.984C585.594 634.984 586.219 634.809 586.703 634.457C587.188 634.098 587.543 633.582 587.77 632.91C587.996 632.238 588.109 631.43 588.109 630.484C588.109 629.539 587.996 628.738 587.77 628.082C587.543 627.418 587.188 626.914 586.703 626.57C586.219 626.219 585.59 626.043 584.816 626.043C583.676 626.043 582.844 626.426 582.32 627.191C581.797 627.957 581.535 629.055 581.535 630.484ZM605.418 624.027V637H603.25L602.875 635.254H602.723C602.449 635.699 602.102 636.07 601.68 636.367C601.258 636.656 600.789 636.871 600.273 637.012C599.758 637.16 599.215 637.234 598.645 637.234C597.668 637.234 596.832 637.07 596.137 636.742C595.449 636.406 594.922 635.891 594.555 635.195C594.188 634.5 594.004 633.602 594.004 632.5V624.027H596.77V631.984C596.77 632.992 596.973 633.746 597.379 634.246C597.793 634.746 598.434 634.996 599.301 634.996C600.137 634.996 600.801 634.824 601.293 634.48C601.785 634.137 602.133 633.629 602.336 632.957C602.547 632.285 602.652 631.461 602.652 630.484V624.027H605.418ZM614.477 631.727V629.395H620.523V631.727H614.477ZM636.332 623.781C637.793 623.781 638.93 624.16 639.742 624.918C640.562 625.668 640.973 626.875 640.973 628.539V637H638.219V629.055C638.219 628.047 638.012 627.293 637.598 626.793C637.184 626.285 636.543 626.031 635.676 626.031C634.418 626.031 633.543 626.418 633.051 627.191C632.566 627.965 632.324 629.086 632.324 630.555V637H629.57V624.027H631.715L632.102 625.785H632.254C632.535 625.332 632.883 624.961 633.297 624.672C633.719 624.375 634.188 624.152 634.703 624.004C635.227 623.855 635.77 623.781 636.332 623.781ZM656.312 630.484C656.312 631.562 656.172 632.52 655.891 633.355C655.609 634.191 655.199 634.898 654.66 635.477C654.121 636.047 653.473 636.484 652.715 636.789C651.957 637.086 651.102 637.234 650.148 637.234C649.258 637.234 648.441 637.086 647.699 636.789C646.957 636.484 646.312 636.047 645.766 635.477C645.227 634.898 644.809 634.191 644.512 633.355C644.215 632.52 644.066 631.562 644.066 630.484C644.066 629.055 644.312 627.844 644.805 626.852C645.305 625.852 646.016 625.09 646.938 624.566C647.859 624.043 648.957 623.781 650.23 623.781C651.426 623.781 652.48 624.043 653.395 624.566C654.309 625.09 655.023 625.852 655.539 626.852C656.055 627.852 656.312 629.062 656.312 630.484ZM646.902 630.484C646.902 631.43 647.016 632.238 647.242 632.91C647.477 633.582 647.836 634.098 648.32 634.457C648.805 634.809 649.43 634.984 650.195 634.984C650.961 634.984 651.586 634.809 652.07 634.457C652.555 634.098 652.91 633.582 653.137 632.91C653.363 632.238 653.477 631.43 653.477 630.484C653.477 629.539 653.363 628.738 653.137 628.082C652.91 627.418 652.555 626.914 652.07 626.57C651.586 626.219 650.957 626.043 650.184 626.043C649.043 626.043 648.211 626.426 647.688 627.191C647.164 627.957 646.902 629.055 646.902 630.484ZM664.305 635.008C664.664 635.008 665.02 634.977 665.371 634.914C665.723 634.844 666.043 634.762 666.332 634.668V636.754C666.027 636.887 665.633 637 665.148 637.094C664.664 637.188 664.16 637.234 663.637 637.234C662.902 637.234 662.242 637.113 661.656 636.871C661.07 636.621 660.605 636.195 660.262 635.594C659.918 634.992 659.746 634.16 659.746 633.098V626.125H657.977V624.895L659.875 623.922L660.777 621.145H662.512V624.027H666.227V626.125H662.512V633.062C662.512 633.719 662.676 634.207 663.004 634.527C663.332 634.848 663.766 635.008 664.305 635.008ZM415.609 660.008C415.969 660.008 416.324 659.977 416.676 659.914C417.027 659.844 417.348 659.762 417.637 659.668V661.754C417.332 661.887 416.938 662 416.453 662.094C415.969 662.188 415.465 662.234 414.941 662.234C414.207 662.234 413.547 662.113 412.961 661.871C412.375 661.621 411.91 661.195 411.566 660.594C411.223 659.992 411.051 659.16 411.051 658.098V651.125H409.281V649.895L411.18 648.922L412.082 646.145H413.816V649.027H417.531V651.125H413.816V658.062C413.816 658.719 413.98 659.207 414.309 659.527C414.637 659.848 415.07 660.008 415.609 660.008ZM423.027 643.766V648.348C423.027 648.824 423.012 649.289 422.98 649.742C422.957 650.195 422.93 650.547 422.898 650.797H423.051C423.324 650.344 423.66 649.973 424.059 649.684C424.457 649.387 424.902 649.164 425.395 649.016C425.895 648.867 426.426 648.793 426.988 648.793C427.98 648.793 428.824 648.961 429.52 649.297C430.215 649.625 430.746 650.137 431.113 650.832C431.488 651.527 431.676 652.43 431.676 653.539V662H428.922V654.055C428.922 653.047 428.715 652.293 428.301 651.793C427.887 651.285 427.246 651.031 426.379 651.031C425.543 651.031 424.879 651.207 424.387 651.559C423.902 651.902 423.555 652.414 423.344 653.094C423.133 653.766 423.027 654.586 423.027 655.555V662H420.273V643.766H423.027ZM440.699 648.781C441.855 648.781 442.848 649.02 443.676 649.496C444.504 649.973 445.141 650.648 445.586 651.523C446.031 652.398 446.254 653.445 446.254 654.664V656.141H437.594C437.625 657.398 437.961 658.367 438.602 659.047C439.25 659.727 440.156 660.066 441.32 660.066C442.148 660.066 442.891 659.988 443.547 659.832C444.211 659.668 444.895 659.43 445.598 659.117V661.355C444.949 661.66 444.289 661.883 443.617 662.023C442.945 662.164 442.141 662.234 441.203 662.234C439.93 662.234 438.809 661.988 437.84 661.496C436.879 660.996 436.125 660.254 435.578 659.27C435.039 658.285 434.77 657.062 434.77 655.602C434.77 654.148 435.016 652.914 435.508 651.898C436 650.883 436.691 650.109 437.582 649.578C438.473 649.047 439.512 648.781 440.699 648.781ZM440.699 650.855C439.832 650.855 439.129 651.137 438.59 651.699C438.059 652.262 437.746 653.086 437.652 654.172H443.559C443.551 653.523 443.441 652.949 443.23 652.449C443.027 651.949 442.715 651.559 442.293 651.277C441.879 650.996 441.348 650.855 440.699 650.855ZM467.078 655.484C467.078 656.562 466.938 657.52 466.656 658.355C466.375 659.191 465.965 659.898 465.426 660.477C464.887 661.047 464.238 661.484 463.48 661.789C462.723 662.086 461.867 662.234 460.914 662.234C460.023 662.234 459.207 662.086 458.465 661.789C457.723 661.484 457.078 661.047 456.531 660.477C455.992 659.898 455.574 659.191 455.277 658.355C454.98 657.52 454.832 656.562 454.832 655.484C454.832 654.055 455.078 652.844 455.57 651.852C456.07 650.852 456.781 650.09 457.703 649.566C458.625 649.043 459.723 648.781 460.996 648.781C462.191 648.781 463.246 649.043 464.16 649.566C465.074 650.09 465.789 650.852 466.305 651.852C466.82 652.852 467.078 654.062 467.078 655.484ZM457.668 655.484C457.668 656.43 457.781 657.238 458.008 657.91C458.242 658.582 458.602 659.098 459.086 659.457C459.57 659.809 460.195 659.984 460.961 659.984C461.727 659.984 462.352 659.809 462.836 659.457C463.32 659.098 463.676 658.582 463.902 657.91C464.129 657.238 464.242 656.43 464.242 655.484C464.242 654.539 464.129 653.738 463.902 653.082C463.676 652.418 463.32 651.914 462.836 651.57C462.352 651.219 461.723 651.043 460.949 651.043C459.809 651.043 458.977 651.426 458.453 652.191C457.93 652.957 457.668 654.055 457.668 655.484ZM475.07 660.008C475.43 660.008 475.785 659.977 476.137 659.914C476.488 659.844 476.809 659.762 477.098 659.668V661.754C476.793 661.887 476.398 662 475.914 662.094C475.43 662.188 474.926 662.234 474.402 662.234C473.668 662.234 473.008 662.113 472.422 661.871C471.836 661.621 471.371 661.195 471.027 660.594C470.684 659.992 470.512 659.16 470.512 658.098V651.125H468.742V649.895L470.641 648.922L471.543 646.145H473.277V649.027H476.992V651.125H473.277V658.062C473.277 658.719 473.441 659.207 473.77 659.527C474.098 659.848 474.531 660.008 475.07 660.008ZM482.488 643.766V648.348C482.488 648.824 482.473 649.289 482.441 649.742C482.418 650.195 482.391 650.547 482.359 650.797H482.512C482.785 650.344 483.121 649.973 483.52 649.684C483.918 649.387 484.363 649.164 484.855 649.016C485.355 648.867 485.887 648.793 486.449 648.793C487.441 648.793 488.285 648.961 488.98 649.297C489.676 649.625 490.207 650.137 490.574 650.832C490.949 651.527 491.137 652.43 491.137 653.539V662H488.383V654.055C488.383 653.047 488.176 652.293 487.762 651.793C487.348 651.285 486.707 651.031 485.84 651.031C485.004 651.031 484.34 651.207 483.848 651.559C483.363 651.902 483.016 652.414 482.805 653.094C482.594 653.766 482.488 654.586 482.488 655.555V662H479.734V643.766H482.488ZM500.16 648.781C501.316 648.781 502.309 649.02 503.137 649.496C503.965 649.973 504.602 650.648 505.047 651.523C505.492 652.398 505.715 653.445 505.715 654.664V656.141H497.055C497.086 657.398 497.422 658.367 498.062 659.047C498.711 659.727 499.617 660.066 500.781 660.066C501.609 660.066 502.352 659.988 503.008 659.832C503.672 659.668 504.355 659.43 505.059 659.117V661.355C504.41 661.66 503.75 661.883 503.078 662.023C502.406 662.164 501.602 662.234 500.664 662.234C499.391 662.234 498.27 661.988 497.301 661.496C496.34 660.996 495.586 660.254 495.039 659.27C494.5 658.285 494.23 657.062 494.23 655.602C494.23 654.148 494.477 652.914 494.969 651.898C495.461 650.883 496.152 650.109 497.043 649.578C497.934 649.047 498.973 648.781 500.16 648.781ZM500.16 650.855C499.293 650.855 498.59 651.137 498.051 651.699C497.52 652.262 497.207 653.086 497.113 654.172H503.02C503.012 653.523 502.902 652.949 502.691 652.449C502.488 651.949 502.176 651.559 501.754 651.277C501.34 650.996 500.809 650.855 500.16 650.855ZM515.395 648.781C515.613 648.781 515.852 648.793 516.109 648.816C516.367 648.84 516.59 648.871 516.777 648.91L516.52 651.488C516.355 651.441 516.152 651.406 515.91 651.383C515.676 651.359 515.465 651.348 515.277 651.348C514.785 651.348 514.316 651.43 513.871 651.594C513.426 651.75 513.031 651.992 512.688 652.32C512.344 652.641 512.074 653.043 511.879 653.527C511.684 654.012 511.586 654.574 511.586 655.215V662H508.82V649.027H510.977L511.352 651.312H511.48C511.738 650.852 512.059 650.43 512.441 650.047C512.824 649.664 513.262 649.359 513.754 649.133C514.254 648.898 514.801 648.781 515.395 648.781ZM536.02 661.988L534.379 655.953C534.301 655.656 534.207 655.297 534.098 654.875C533.988 654.453 533.879 654.02 533.77 653.574C533.66 653.121 533.559 652.703 533.465 652.32C533.379 651.938 533.312 651.641 533.266 651.43H533.172C533.133 651.641 533.07 651.938 532.984 652.32C532.898 652.703 532.801 653.121 532.691 653.574C532.582 654.027 532.473 654.469 532.363 654.898C532.262 655.328 532.168 655.695 532.082 656L530.359 661.988H527.336L523.703 649.016H526.492L528.18 655.461C528.289 655.898 528.395 656.371 528.496 656.879C528.605 657.387 528.699 657.871 528.777 658.332C528.855 658.793 528.914 659.172 528.953 659.469H529.047C529.078 659.258 529.121 658.992 529.176 658.672C529.23 658.344 529.293 658.004 529.363 657.652C529.434 657.293 529.504 656.957 529.574 656.645C529.645 656.324 529.711 656.066 529.773 655.871L531.766 649.016H534.777L536.688 655.871C536.773 656.168 536.867 656.543 536.969 656.996C537.07 657.441 537.16 657.891 537.238 658.344C537.324 658.789 537.379 659.16 537.402 659.457H537.496C537.527 659.191 537.582 658.832 537.66 658.379C537.746 657.918 537.844 657.43 537.953 656.914C538.062 656.391 538.176 655.906 538.293 655.461L540.016 649.016H542.758L539.102 661.988H536.02ZM550.07 648.781C551.711 648.781 552.949 649.145 553.785 649.871C554.629 650.598 555.051 651.73 555.051 653.27V662H553.094L552.566 660.16H552.473C552.105 660.629 551.727 661.016 551.336 661.32C550.945 661.625 550.492 661.852 549.977 662C549.469 662.156 548.848 662.234 548.113 662.234C547.34 662.234 546.648 662.094 546.039 661.812C545.43 661.523 544.949 661.086 544.598 660.5C544.246 659.914 544.07 659.172 544.07 658.273C544.07 656.938 544.566 655.934 545.559 655.262C546.559 654.59 548.066 654.219 550.082 654.148L552.332 654.066V653.387C552.332 652.488 552.121 651.848 551.699 651.465C551.285 651.082 550.699 650.891 549.941 650.891C549.293 650.891 548.664 650.984 548.055 651.172C547.445 651.359 546.852 651.59 546.273 651.863L545.383 649.918C546.016 649.582 546.734 649.309 547.539 649.098C548.352 648.887 549.195 648.781 550.07 648.781ZM552.32 655.801L550.645 655.859C549.27 655.906 548.305 656.141 547.75 656.562C547.195 656.984 546.918 657.562 546.918 658.297C546.918 658.938 547.109 659.406 547.492 659.703C547.875 659.992 548.379 660.137 549.004 660.137C549.957 660.137 550.746 659.867 551.371 659.328C552.004 658.781 552.32 657.98 552.32 656.926V655.801ZM556.949 649.027H559.949L562.609 656.434C562.727 656.77 562.832 657.102 562.926 657.43C563.027 657.75 563.113 658.066 563.184 658.379C563.262 658.691 563.324 659.004 563.371 659.316H563.441C563.52 658.91 563.629 658.457 563.77 657.957C563.918 657.449 564.082 656.941 564.262 656.434L566.816 649.027H569.781L564.215 663.781C563.895 664.625 563.5 665.344 563.031 665.938C562.57 666.539 562.023 666.992 561.391 667.297C560.758 667.609 560.035 667.766 559.223 667.766C558.832 667.766 558.492 667.742 558.203 667.695C557.914 667.656 557.668 667.613 557.465 667.566V665.363C557.629 665.402 557.836 665.438 558.086 665.469C558.336 665.5 558.594 665.516 558.859 665.516C559.352 665.516 559.777 665.418 560.137 665.223C560.496 665.027 560.801 664.75 561.051 664.391C561.301 664.039 561.508 663.637 561.672 663.184L562.129 661.965L556.949 649.027ZM583.07 648.781C584.711 648.781 585.949 649.145 586.785 649.871C587.629 650.598 588.051 651.73 588.051 653.27V662H586.094L585.566 660.16H585.473C585.105 660.629 584.727 661.016 584.336 661.32C583.945 661.625 583.492 661.852 582.977 662C582.469 662.156 581.848 662.234 581.113 662.234C580.34 662.234 579.648 662.094 579.039 661.812C578.43 661.523 577.949 661.086 577.598 660.5C577.246 659.914 577.07 659.172 577.07 658.273C577.07 656.938 577.566 655.934 578.559 655.262C579.559 654.59 581.066 654.219 583.082 654.148L585.332 654.066V653.387C585.332 652.488 585.121 651.848 584.699 651.465C584.285 651.082 583.699 650.891 582.941 650.891C582.293 650.891 581.664 650.984 581.055 651.172C580.445 651.359 579.852 651.59 579.273 651.863L578.383 649.918C579.016 649.582 579.734 649.309 580.539 649.098C581.352 648.887 582.195 648.781 583.07 648.781ZM585.32 655.801L583.645 655.859C582.27 655.906 581.305 656.141 580.75 656.562C580.195 656.984 579.918 657.562 579.918 658.297C579.918 658.938 580.109 659.406 580.492 659.703C580.875 659.992 581.379 660.137 582.004 660.137C582.957 660.137 583.746 659.867 584.371 659.328C585.004 658.781 585.32 657.98 585.32 656.926V655.801ZM598.48 648.781C598.699 648.781 598.938 648.793 599.195 648.816C599.453 648.84 599.676 648.871 599.863 648.91L599.605 651.488C599.441 651.441 599.238 651.406 598.996 651.383C598.762 651.359 598.551 651.348 598.363 651.348C597.871 651.348 597.402 651.43 596.957 651.594C596.512 651.75 596.117 651.992 595.773 652.32C595.43 652.641 595.16 653.043 594.965 653.527C594.77 654.012 594.672 654.574 594.672 655.215V662H591.906V649.027H594.062L594.438 651.312H594.566C594.824 650.852 595.145 650.43 595.527 650.047C595.91 649.664 596.348 649.359 596.84 649.133C597.34 648.898 597.887 648.781 598.48 648.781ZM613.75 655.484C613.75 656.562 613.609 657.52 613.328 658.355C613.047 659.191 612.637 659.898 612.098 660.477C611.559 661.047 610.91 661.484 610.152 661.789C609.395 662.086 608.539 662.234 607.586 662.234C606.695 662.234 605.879 662.086 605.137 661.789C604.395 661.484 603.75 661.047 603.203 660.477C602.664 659.898 602.246 659.191 601.949 658.355C601.652 657.52 601.504 656.562 601.504 655.484C601.504 654.055 601.75 652.844 602.242 651.852C602.742 650.852 603.453 650.09 604.375 649.566C605.297 649.043 606.395 648.781 607.668 648.781C608.863 648.781 609.918 649.043 610.832 649.566C611.746 650.09 612.461 650.852 612.977 651.852C613.492 652.852 613.75 654.062 613.75 655.484ZM604.34 655.484C604.34 656.43 604.453 657.238 604.68 657.91C604.914 658.582 605.273 659.098 605.758 659.457C606.242 659.809 606.867 659.984 607.633 659.984C608.398 659.984 609.023 659.809 609.508 659.457C609.992 659.098 610.348 658.582 610.574 657.91C610.801 657.238 610.914 656.43 610.914 655.484C610.914 654.539 610.801 653.738 610.574 653.082C610.348 652.418 609.992 651.914 609.508 651.57C609.023 651.219 608.395 651.043 607.621 651.043C606.48 651.043 605.648 651.426 605.125 652.191C604.602 652.957 604.34 654.055 604.34 655.484ZM628.223 649.027V662H626.055L625.68 660.254H625.527C625.254 660.699 624.906 661.07 624.484 661.367C624.062 661.656 623.594 661.871 623.078 662.012C622.562 662.16 622.02 662.234 621.449 662.234C620.473 662.234 619.637 662.07 618.941 661.742C618.254 661.406 617.727 660.891 617.359 660.195C616.992 659.5 616.809 658.602 616.809 657.5V649.027H619.574V656.984C619.574 657.992 619.777 658.746 620.184 659.246C620.598 659.746 621.238 659.996 622.105 659.996C622.941 659.996 623.605 659.824 624.098 659.48C624.59 659.137 624.938 658.629 625.141 657.957C625.352 657.285 625.457 656.461 625.457 655.484V649.027H628.223ZM638.934 648.781C640.395 648.781 641.531 649.16 642.344 649.918C643.164 650.668 643.574 651.875 643.574 653.539V662H640.82V654.055C640.82 653.047 640.613 652.293 640.199 651.793C639.785 651.285 639.145 651.031 638.277 651.031C637.02 651.031 636.145 651.418 635.652 652.191C635.168 652.965 634.926 654.086 634.926 655.555V662H632.172V649.027H634.316L634.703 650.785H634.855C635.137 650.332 635.484 649.961 635.898 649.672C636.32 649.375 636.789 649.152 637.305 649.004C637.828 648.855 638.371 648.781 638.934 648.781ZM651.789 662.234C650.242 662.234 649 661.672 648.062 660.547C647.133 659.414 646.668 657.746 646.668 655.543C646.668 653.316 647.141 651.633 648.086 650.492C649.039 649.352 650.293 648.781 651.848 648.781C652.504 648.781 653.078 648.871 653.57 649.051C654.062 649.223 654.484 649.457 654.836 649.754C655.195 650.051 655.5 650.383 655.75 650.75H655.879C655.84 650.508 655.793 650.16 655.738 649.707C655.691 649.246 655.668 648.82 655.668 648.43V643.766H658.434V662H656.277L655.785 660.23H655.668C655.434 660.605 655.137 660.945 654.777 661.25C654.426 661.547 654.004 661.785 653.512 661.965C653.027 662.145 652.453 662.234 651.789 662.234ZM652.562 659.996C653.742 659.996 654.574 659.656 655.059 658.977C655.543 658.297 655.793 657.277 655.809 655.918V655.555C655.809 654.102 655.574 652.988 655.105 652.215C654.637 651.434 653.781 651.043 652.539 651.043C651.547 651.043 650.789 651.445 650.266 652.25C649.75 653.047 649.492 654.16 649.492 655.59C649.492 657.02 649.75 658.113 650.266 658.871C650.789 659.621 651.555 659.996 652.562 659.996ZM661.984 660.547C661.984 659.906 662.148 659.457 662.477 659.199C662.812 658.934 663.219 658.801 663.695 658.801C664.172 658.801 664.578 658.934 664.914 659.199C665.258 659.457 665.43 659.906 665.43 660.547C665.43 661.172 665.258 661.625 664.914 661.906C664.578 662.18 664.172 662.316 663.695 662.316C663.219 662.316 662.812 662.18 662.477 661.906C662.148 661.625 661.984 661.172 661.984 660.547Z" fill="white"/>
<path d="M616 548C616.593 548 617.173 547.824 617.667 547.494C618.16 547.165 618.545 546.696 618.772 546.148C618.999 545.6 619.058 544.997 618.942 544.415C618.827 543.833 618.541 543.298 618.121 542.879C617.702 542.459 617.167 542.173 616.585 542.058C616.003 541.942 615.4 542.001 614.852 542.228C614.304 542.455 613.835 542.84 613.506 543.333C613.176 543.827 613 544.407 613 545C613 545.796 613.316 546.559 613.879 547.121C614.441 547.684 615.204 548 616 548ZM631 548C631.593 548 632.173 547.824 632.667 547.494C633.16 547.165 633.545 546.696 633.772 546.148C633.999 545.6 634.058 544.997 633.942 544.415C633.827 543.833 633.541 543.298 633.121 542.879C632.702 542.459 632.167 542.173 631.585 542.058C631.003 541.942 630.4 542.001 629.852 542.228C629.304 542.455 628.835 542.84 628.506 543.333C628.176 543.827 628 544.407 628 545C628 545.796 628.316 546.559 628.879 547.121C629.441 547.684 630.204 548 631 548ZM616 560C616.593 560 617.173 559.824 617.667 559.494C618.16 559.165 618.545 558.696 618.772 558.148C618.999 557.6 619.058 556.997 618.942 556.415C618.827 555.833 618.541 555.298 618.121 554.879C617.702 554.459 617.167 554.173 616.585 554.058C616.003 553.942 615.4 554.001 614.852 554.228C614.304 554.455 613.835 554.84 613.506 555.333C613.176 555.827 613 556.407 613 557C613 557.796 613.316 558.559 613.879 559.121C614.441 559.684 615.204 560 616 560ZM631 560C631.593 560 632.173 559.824 632.667 559.494C633.16 559.165 633.545 558.696 633.772 558.148C633.999 557.6 634.058 556.997 633.942 556.415C633.827 555.833 633.541 555.298 633.121 554.879C632.702 554.459 632.167 554.173 631.585 554.058C631.003 553.942 630.4 554.001 629.852 554.228C629.304 554.455 628.835 554.84 628.506 555.333C628.176 555.827 628 556.407 628 557C628 557.796 628.316 558.559 628.879 559.121C629.441 559.684 630.204 560 631 560ZM601 548C601.593 548 602.173 547.824 602.667 547.494C603.16 547.165 603.545 546.696 603.772 546.148C603.999 545.6 604.058 544.997 603.942 544.415C603.827 543.833 603.541 543.298 603.121 542.879C602.702 542.459 602.167 542.173 601.585 542.058C601.003 541.942 600.4 542.001 599.852 542.228C599.304 542.455 598.835 542.84 598.506 543.333C598.176 543.827 598 544.407 598 545C598 545.796 598.316 546.559 598.879 547.121C599.441 547.684 600.204 548 601 548ZM637 518H634V515C634 514.204 633.684 513.441 633.121 512.879C632.559 512.316 631.796 512 631 512C630.204 512 629.441 512.316 628.879 512.879C628.316 513.441 628 514.204 628 515V518H604V515C604 514.204 603.684 513.441 603.121 512.879C602.559 512.316 601.796 512 601 512C600.204 512 599.441 512.316 598.879 512.879C598.316 513.441 598 514.204 598 515V518H595C592.613 518 590.324 518.948 588.636 520.636C586.948 522.324 586 524.613 586 527V563C586 565.387 586.948 567.676 588.636 569.364C590.324 571.052 592.613 572 595 572H637C639.387 572 641.676 571.052 643.364 569.364C645.052 567.676 646 565.387 646 563V527C646 524.613 645.052 522.324 643.364 520.636C641.676 518.948 639.387 518 637 518ZM640 563C640 563.796 639.684 564.559 639.121 565.121C638.559 565.684 637.796 566 637 566H595C594.204 566 593.441 565.684 592.879 565.121C592.316 564.559 592 563.796 592 563V536H640V563ZM640 530H592V527C592 526.204 592.316 525.441 592.879 524.879C593.441 524.316 594.204 524 595 524H637C637.796 524 638.559 524.316 639.121 524.879C639.684 525.441 640 526.204 640 527V530ZM601 560C601.593 560 602.173 559.824 602.667 559.494C603.16 559.165 603.545 558.696 603.772 558.148C603.999 557.6 604.058 556.997 603.942 556.415C603.827 555.833 603.541 555.298 603.121 554.879C602.702 554.459 602.167 554.173 601.585 554.058C601.003 553.942 600.4 554.001 599.852 554.228C599.304 554.455 598.835 554.84 598.506 555.333C598.176 555.827 598 556.407 598 557C598 557.796 598.316 558.559 598.879 559.121C599.441 559.684 600.204 560 601 560Z" fill="white"/>
<path d="M77.0391 281H74.25V263.867H83.9297V266.234H77.0391V271.578H83.4844V273.934H77.0391V281ZM89.5195 268.027V281H86.7656V268.027H89.5195ZM88.1602 263.059C88.582 263.059 88.9453 263.172 89.25 263.398C89.5625 263.625 89.7188 264.016 89.7188 264.57C89.7188 265.117 89.5625 265.508 89.25 265.742C88.9453 265.969 88.582 266.082 88.1602 266.082C87.7227 266.082 87.3516 265.969 87.0469 265.742C86.75 265.508 86.6016 265.117 86.6016 264.57C86.6016 264.016 86.75 263.625 87.0469 263.398C87.3516 263.172 87.7227 263.059 88.1602 263.059ZM100.23 267.781C101.691 267.781 102.828 268.16 103.641 268.918C104.461 269.668 104.871 270.875 104.871 272.539V281H102.117V273.055C102.117 272.047 101.91 271.293 101.496 270.793C101.082 270.285 100.441 270.031 99.5742 270.031C98.3164 270.031 97.4414 270.418 96.9492 271.191C96.4648 271.965 96.2227 273.086 96.2227 274.555V281H93.4688V268.027H95.6133L96 269.785H96.1523C96.4336 269.332 96.7812 268.961 97.1953 268.672C97.6172 268.375 98.0859 268.152 98.6016 268.004C99.125 267.855 99.668 267.781 100.23 267.781ZM113.086 281.234C111.539 281.234 110.297 280.672 109.359 279.547C108.43 278.414 107.965 276.746 107.965 274.543C107.965 272.316 108.438 270.633 109.383 269.492C110.336 268.352 111.59 267.781 113.145 267.781C113.801 267.781 114.375 267.871 114.867 268.051C115.359 268.223 115.781 268.457 116.133 268.754C116.492 269.051 116.797 269.383 117.047 269.75H117.176C117.137 269.508 117.09 269.16 117.035 268.707C116.988 268.246 116.965 267.82 116.965 267.43V262.766H119.73V281H117.574L117.082 279.23H116.965C116.73 279.605 116.434 279.945 116.074 280.25C115.723 280.547 115.301 280.785 114.809 280.965C114.324 281.145 113.75 281.234 113.086 281.234ZM113.859 278.996C115.039 278.996 115.871 278.656 116.355 277.977C116.84 277.297 117.09 276.277 117.105 274.918V274.555C117.105 273.102 116.871 271.988 116.402 271.215C115.934 270.434 115.078 270.043 113.836 270.043C112.844 270.043 112.086 270.445 111.562 271.25C111.047 272.047 110.789 273.16 110.789 274.59C110.789 276.02 111.047 277.113 111.562 277.871C112.086 278.621 112.852 278.996 113.859 278.996ZM141.398 274.484C141.398 275.562 141.258 276.52 140.977 277.355C140.695 278.191 140.285 278.898 139.746 279.477C139.207 280.047 138.559 280.484 137.801 280.789C137.043 281.086 136.188 281.234 135.234 281.234C134.344 281.234 133.527 281.086 132.785 280.789C132.043 280.484 131.398 280.047 130.852 279.477C130.312 278.898 129.895 278.191 129.598 277.355C129.301 276.52 129.152 275.562 129.152 274.484C129.152 273.055 129.398 271.844 129.891 270.852C130.391 269.852 131.102 269.09 132.023 268.566C132.945 268.043 134.043 267.781 135.316 267.781C136.512 267.781 137.566 268.043 138.48 268.566C139.395 269.09 140.109 269.852 140.625 270.852C141.141 271.852 141.398 273.062 141.398 274.484ZM131.988 274.484C131.988 275.43 132.102 276.238 132.328 276.91C132.562 277.582 132.922 278.098 133.406 278.457C133.891 278.809 134.516 278.984 135.281 278.984C136.047 278.984 136.672 278.809 137.156 278.457C137.641 278.098 137.996 277.582 138.223 276.91C138.449 276.238 138.562 275.43 138.562 274.484C138.562 273.539 138.449 272.738 138.223 272.082C137.996 271.418 137.641 270.914 137.156 270.57C136.672 270.219 136.043 270.043 135.27 270.043C134.129 270.043 133.297 270.426 132.773 271.191C132.25 271.957 131.988 273.055 131.988 274.484ZM149.391 279.008C149.75 279.008 150.105 278.977 150.457 278.914C150.809 278.844 151.129 278.762 151.418 278.668V280.754C151.113 280.887 150.719 281 150.234 281.094C149.75 281.188 149.246 281.234 148.723 281.234C147.988 281.234 147.328 281.113 146.742 280.871C146.156 280.621 145.691 280.195 145.348 279.594C145.004 278.992 144.832 278.16 144.832 277.098V270.125H143.062V268.895L144.961 267.922L145.863 265.145H147.598V268.027H151.312V270.125H147.598V277.062C147.598 277.719 147.762 278.207 148.09 278.527C148.418 278.848 148.852 279.008 149.391 279.008ZM156.809 262.766V267.348C156.809 267.824 156.793 268.289 156.762 268.742C156.738 269.195 156.711 269.547 156.68 269.797H156.832C157.105 269.344 157.441 268.973 157.84 268.684C158.238 268.387 158.684 268.164 159.176 268.016C159.676 267.867 160.207 267.793 160.77 267.793C161.762 267.793 162.605 267.961 163.301 268.297C163.996 268.625 164.527 269.137 164.895 269.832C165.27 270.527 165.457 271.43 165.457 272.539V281H162.703V273.055C162.703 272.047 162.496 271.293 162.082 270.793C161.668 270.285 161.027 270.031 160.16 270.031C159.324 270.031 158.66 270.207 158.168 270.559C157.684 270.902 157.336 271.414 157.125 272.094C156.914 272.766 156.809 273.586 156.809 274.555V281H154.055V262.766H156.809ZM174.48 267.781C175.637 267.781 176.629 268.02 177.457 268.496C178.285 268.973 178.922 269.648 179.367 270.523C179.812 271.398 180.035 272.445 180.035 273.664V275.141H171.375C171.406 276.398 171.742 277.367 172.383 278.047C173.031 278.727 173.938 279.066 175.102 279.066C175.93 279.066 176.672 278.988 177.328 278.832C177.992 278.668 178.676 278.43 179.379 278.117V280.355C178.73 280.66 178.07 280.883 177.398 281.023C176.727 281.164 175.922 281.234 174.984 281.234C173.711 281.234 172.59 280.988 171.621 280.496C170.66 279.996 169.906 279.254 169.359 278.27C168.82 277.285 168.551 276.062 168.551 274.602C168.551 273.148 168.797 271.914 169.289 270.898C169.781 269.883 170.473 269.109 171.363 268.578C172.254 268.047 173.293 267.781 174.48 267.781ZM174.48 269.855C173.613 269.855 172.91 270.137 172.371 270.699C171.84 271.262 171.527 272.086 171.434 273.172H177.34C177.332 272.523 177.223 271.949 177.012 271.449C176.809 270.949 176.496 270.559 176.074 270.277C175.66 269.996 175.129 269.855 174.48 269.855ZM189.715 267.781C189.934 267.781 190.172 267.793 190.43 267.816C190.688 267.84 190.91 267.871 191.098 267.91L190.84 270.488C190.676 270.441 190.473 270.406 190.23 270.383C189.996 270.359 189.785 270.348 189.598 270.348C189.105 270.348 188.637 270.43 188.191 270.594C187.746 270.75 187.352 270.992 187.008 271.32C186.664 271.641 186.395 272.043 186.199 272.527C186.004 273.012 185.906 273.574 185.906 274.215V281H183.141V268.027H185.297L185.672 270.312H185.801C186.059 269.852 186.379 269.43 186.762 269.047C187.145 268.664 187.582 268.359 188.074 268.133C188.574 267.898 189.121 267.781 189.715 267.781ZM206.215 270.125H203.062V281H200.309V270.125H198.188V268.801L200.309 267.992V267.09C200.309 265.988 200.48 265.113 200.824 264.465C201.176 263.816 201.676 263.352 202.324 263.07C202.98 262.781 203.762 262.637 204.668 262.637C205.262 262.637 205.805 262.688 206.297 262.789C206.789 262.883 207.203 262.992 207.539 263.117L206.824 265.203C206.559 265.117 206.262 265.039 205.934 264.969C205.605 264.891 205.254 264.852 204.879 264.852C204.254 264.852 203.793 265.047 203.496 265.438C203.207 265.828 203.062 266.398 203.062 267.148V268.027H206.215V270.125ZM213.516 267.781C215.156 267.781 216.395 268.145 217.23 268.871C218.074 269.598 218.496 270.73 218.496 272.27V281H216.539L216.012 279.16H215.918C215.551 279.629 215.172 280.016 214.781 280.32C214.391 280.625 213.938 280.852 213.422 281C212.914 281.156 212.293 281.234 211.559 281.234C210.785 281.234 210.094 281.094 209.484 280.812C208.875 280.523 208.395 280.086 208.043 279.5C207.691 278.914 207.516 278.172 207.516 277.273C207.516 275.938 208.012 274.934 209.004 274.262C210.004 273.59 211.512 273.219 213.527 273.148L215.777 273.066V272.387C215.777 271.488 215.566 270.848 215.145 270.465C214.73 270.082 214.145 269.891 213.387 269.891C212.738 269.891 212.109 269.984 211.5 270.172C210.891 270.359 210.297 270.59 209.719 270.863L208.828 268.918C209.461 268.582 210.18 268.309 210.984 268.098C211.797 267.887 212.641 267.781 213.516 267.781ZM215.766 274.801L214.09 274.859C212.715 274.906 211.75 275.141 211.195 275.562C210.641 275.984 210.363 276.562 210.363 277.297C210.363 277.938 210.555 278.406 210.938 278.703C211.32 278.992 211.824 279.137 212.449 279.137C213.402 279.137 214.191 278.867 214.816 278.328C215.449 277.781 215.766 276.98 215.766 275.926V274.801ZM237.012 267.781C238.465 267.781 239.559 268.156 240.293 268.906C241.035 269.656 241.406 270.859 241.406 272.516V281H238.652V273.008C238.652 272.023 238.461 271.281 238.078 270.781C237.695 270.281 237.113 270.031 236.332 270.031C235.238 270.031 234.449 270.383 233.965 271.086C233.488 271.781 233.25 272.793 233.25 274.121V281H230.496V273.008C230.496 272.352 230.41 271.805 230.238 271.367C230.074 270.922 229.82 270.59 229.477 270.371C229.133 270.145 228.699 270.031 228.176 270.031C227.418 270.031 226.812 270.203 226.359 270.547C225.914 270.891 225.594 271.398 225.398 272.07C225.203 272.734 225.105 273.551 225.105 274.52V281H222.352V268.027H224.496L224.883 269.773H225.035C225.301 269.32 225.629 268.949 226.02 268.66C226.418 268.363 226.859 268.145 227.344 268.004C227.828 267.855 228.332 267.781 228.855 267.781C229.824 267.781 230.641 267.953 231.305 268.297C231.969 268.633 232.465 269.148 232.793 269.844H233.004C233.41 269.141 233.977 268.621 234.703 268.285C235.43 267.949 236.199 267.781 237.012 267.781ZM248.004 268.027V281H245.25V268.027H248.004ZM246.645 263.059C247.066 263.059 247.43 263.172 247.734 263.398C248.047 263.625 248.203 264.016 248.203 264.57C248.203 265.117 248.047 265.508 247.734 265.742C247.43 265.969 247.066 266.082 246.645 266.082C246.207 266.082 245.836 265.969 245.531 265.742C245.234 265.508 245.086 265.117 245.086 264.57C245.086 264.016 245.234 263.625 245.531 263.398C245.836 263.172 246.207 263.059 246.645 263.059ZM254.719 281H251.953V262.766H254.719V281ZM261.41 268.027V281H258.656V268.027H261.41ZM260.051 263.059C260.473 263.059 260.836 263.172 261.141 263.398C261.453 263.625 261.609 264.016 261.609 264.57C261.609 265.117 261.453 265.508 261.141 265.742C260.836 265.969 260.473 266.082 260.051 266.082C259.613 266.082 259.242 265.969 258.938 265.742C258.641 265.508 258.492 265.117 258.492 264.57C258.492 264.016 258.641 263.625 258.938 263.398C259.242 263.172 259.613 263.059 260.051 263.059ZM270.527 267.781C271.684 267.781 272.676 268.02 273.504 268.496C274.332 268.973 274.969 269.648 275.414 270.523C275.859 271.398 276.082 272.445 276.082 273.664V275.141H267.422C267.453 276.398 267.789 277.367 268.43 278.047C269.078 278.727 269.984 279.066 271.148 279.066C271.977 279.066 272.719 278.988 273.375 278.832C274.039 278.668 274.723 278.43 275.426 278.117V280.355C274.777 280.66 274.117 280.883 273.445 281.023C272.773 281.164 271.969 281.234 271.031 281.234C269.758 281.234 268.637 280.988 267.668 280.496C266.707 279.996 265.953 279.254 265.406 278.27C264.867 277.285 264.598 276.062 264.598 274.602C264.598 273.148 264.844 271.914 265.336 270.898C265.828 269.883 266.52 269.109 267.41 268.578C268.301 268.047 269.34 267.781 270.527 267.781ZM270.527 269.855C269.66 269.855 268.957 270.137 268.418 270.699C267.887 271.262 267.574 272.086 267.48 273.172H273.387C273.379 272.523 273.27 271.949 273.059 271.449C272.855 270.949 272.543 270.559 272.121 270.277C271.707 269.996 271.176 269.855 270.527 269.855ZM287.906 277.297C287.906 278.148 287.699 278.867 287.285 279.453C286.871 280.039 286.266 280.484 285.469 280.789C284.68 281.086 283.711 281.234 282.562 281.234C281.656 281.234 280.875 281.168 280.219 281.035C279.57 280.91 278.957 280.715 278.379 280.449V278.07C278.996 278.359 279.688 278.609 280.453 278.82C281.227 279.031 281.957 279.137 282.645 279.137C283.551 279.137 284.203 278.996 284.602 278.715C285 278.426 285.199 278.043 285.199 277.566C285.199 277.285 285.117 277.035 284.953 276.816C284.797 276.59 284.5 276.359 284.062 276.125C283.633 275.883 283 275.594 282.164 275.258C281.344 274.93 280.652 274.602 280.09 274.273C279.527 273.945 279.102 273.551 278.812 273.09C278.523 272.621 278.379 272.023 278.379 271.297C278.379 270.148 278.832 269.277 279.738 268.684C280.652 268.082 281.859 267.781 283.359 267.781C284.156 267.781 284.906 267.863 285.609 268.027C286.32 268.184 287.016 268.414 287.695 268.719L286.828 270.793C286.242 270.535 285.652 270.324 285.059 270.16C284.473 269.988 283.875 269.902 283.266 269.902C282.555 269.902 282.012 270.012 281.637 270.23C281.27 270.449 281.086 270.762 281.086 271.168C281.086 271.473 281.176 271.73 281.355 271.941C281.535 272.152 281.844 272.363 282.281 272.574C282.727 272.785 283.344 273.047 284.133 273.359C284.906 273.656 285.574 273.969 286.137 274.297C286.707 274.617 287.145 275.012 287.449 275.48C287.754 275.949 287.906 276.555 287.906 277.297ZM79.0547 292.781C80.6953 292.781 81.9336 293.145 82.7695 293.871C83.6133 294.598 84.0352 295.73 84.0352 297.27V306H82.0781L81.5508 304.16H81.457C81.0898 304.629 80.7109 305.016 80.3203 305.32C79.9297 305.625 79.4766 305.852 78.9609 306C78.4531 306.156 77.832 306.234 77.0977 306.234C76.3242 306.234 75.6328 306.094 75.0234 305.812C74.4141 305.523 73.9336 305.086 73.582 304.5C73.2305 303.914 73.0547 303.172 73.0547 302.273C73.0547 300.938 73.5508 299.934 74.543 299.262C75.543 298.59 77.0508 298.219 79.0664 298.148L81.3164 298.066V297.387C81.3164 296.488 81.1055 295.848 80.6836 295.465C80.2695 295.082 79.6836 294.891 78.9258 294.891C78.2773 294.891 77.6484 294.984 77.0391 295.172C76.4297 295.359 75.8359 295.59 75.2578 295.863L74.3672 293.918C75 293.582 75.7188 293.309 76.5234 293.098C77.3359 292.887 78.1797 292.781 79.0547 292.781ZM81.3047 299.801L79.6289 299.859C78.2539 299.906 77.2891 300.141 76.7344 300.562C76.1797 300.984 75.9023 301.562 75.9023 302.297C75.9023 302.938 76.0938 303.406 76.4766 303.703C76.8594 303.992 77.3633 304.137 77.9883 304.137C78.9414 304.137 79.7305 303.867 80.3555 303.328C80.9883 302.781 81.3047 301.98 81.3047 300.926V299.801ZM94.6523 292.781C96.1133 292.781 97.25 293.16 98.0625 293.918C98.8828 294.668 99.293 295.875 99.293 297.539V306H96.5391V298.055C96.5391 297.047 96.332 296.293 95.918 295.793C95.5039 295.285 94.8633 295.031 93.9961 295.031C92.7383 295.031 91.8633 295.418 91.3711 296.191C90.8867 296.965 90.6445 298.086 90.6445 299.555V306H87.8906V293.027H90.0352L90.4219 294.785H90.5742C90.8555 294.332 91.2031 293.961 91.6172 293.672C92.0391 293.375 92.5078 293.152 93.0234 293.004C93.5469 292.855 94.0898 292.781 94.6523 292.781ZM107.508 306.234C105.961 306.234 104.719 305.672 103.781 304.547C102.852 303.414 102.387 301.746 102.387 299.543C102.387 297.316 102.859 295.633 103.805 294.492C104.758 293.352 106.012 292.781 107.566 292.781C108.223 292.781 108.797 292.871 109.289 293.051C109.781 293.223 110.203 293.457 110.555 293.754C110.914 294.051 111.219 294.383 111.469 294.75H111.598C111.559 294.508 111.512 294.16 111.457 293.707C111.41 293.246 111.387 292.82 111.387 292.43V287.766H114.152V306H111.996L111.504 304.23H111.387C111.152 304.605 110.855 304.945 110.496 305.25C110.145 305.547 109.723 305.785 109.23 305.965C108.746 306.145 108.172 306.234 107.508 306.234ZM108.281 303.996C109.461 303.996 110.293 303.656 110.777 302.977C111.262 302.297 111.512 301.277 111.527 299.918V299.555C111.527 298.102 111.293 296.988 110.824 296.215C110.355 295.434 109.5 295.043 108.258 295.043C107.266 295.043 106.508 295.445 105.984 296.25C105.469 297.047 105.211 298.16 105.211 299.59C105.211 301.02 105.469 302.113 105.984 302.871C106.508 303.621 107.273 303.996 108.281 303.996ZM129.562 306.234C128.336 306.234 127.273 305.996 126.375 305.52C125.477 305.043 124.785 304.312 124.301 303.328C123.816 302.344 123.574 301.094 123.574 299.578C123.574 298 123.84 296.711 124.371 295.711C124.902 294.711 125.637 293.973 126.574 293.496C127.52 293.02 128.602 292.781 129.82 292.781C130.594 292.781 131.293 292.859 131.918 293.016C132.551 293.164 133.086 293.348 133.523 293.566L132.703 295.77C132.227 295.574 131.738 295.41 131.238 295.277C130.738 295.145 130.258 295.078 129.797 295.078C129.039 295.078 128.406 295.246 127.898 295.582C127.398 295.918 127.023 296.418 126.773 297.082C126.531 297.746 126.41 298.57 126.41 299.555C126.41 300.508 126.535 301.312 126.785 301.969C127.035 302.617 127.406 303.109 127.898 303.445C128.391 303.773 128.996 303.938 129.715 303.938C130.426 303.938 131.062 303.852 131.625 303.68C132.188 303.508 132.719 303.285 133.219 303.012V305.402C132.727 305.684 132.199 305.891 131.637 306.023C131.074 306.164 130.383 306.234 129.562 306.234ZM141.352 292.781C142.992 292.781 144.23 293.145 145.066 293.871C145.91 294.598 146.332 295.73 146.332 297.27V306H144.375L143.848 304.16H143.754C143.387 304.629 143.008 305.016 142.617 305.32C142.227 305.625 141.773 305.852 141.258 306C140.75 306.156 140.129 306.234 139.395 306.234C138.621 306.234 137.93 306.094 137.32 305.812C136.711 305.523 136.23 305.086 135.879 304.5C135.527 303.914 135.352 303.172 135.352 302.273C135.352 300.938 135.848 299.934 136.84 299.262C137.84 298.59 139.348 298.219 141.363 298.148L143.613 298.066V297.387C143.613 296.488 143.402 295.848 142.98 295.465C142.566 295.082 141.98 294.891 141.223 294.891C140.574 294.891 139.945 294.984 139.336 295.172C138.727 295.359 138.133 295.59 137.555 295.863L136.664 293.918C137.297 293.582 138.016 293.309 138.82 293.098C139.633 292.887 140.477 292.781 141.352 292.781ZM143.602 299.801L141.926 299.859C140.551 299.906 139.586 300.141 139.031 300.562C138.477 300.984 138.199 301.562 138.199 302.297C138.199 302.938 138.391 303.406 138.773 303.703C139.156 303.992 139.66 304.137 140.285 304.137C141.238 304.137 142.027 303.867 142.652 303.328C143.285 302.781 143.602 301.98 143.602 300.926V299.801ZM156.762 292.781C156.98 292.781 157.219 292.793 157.477 292.816C157.734 292.84 157.957 292.871 158.145 292.91L157.887 295.488C157.723 295.441 157.52 295.406 157.277 295.383C157.043 295.359 156.832 295.348 156.645 295.348C156.152 295.348 155.684 295.43 155.238 295.594C154.793 295.75 154.398 295.992 154.055 296.32C153.711 296.641 153.441 297.043 153.246 297.527C153.051 298.012 152.953 298.574 152.953 299.215V306H150.188V293.027H152.344L152.719 295.312H152.848C153.105 294.852 153.426 294.43 153.809 294.047C154.191 293.664 154.629 293.359 155.121 293.133C155.621 292.898 156.168 292.781 156.762 292.781ZM167.203 292.781C168.742 292.781 169.977 293.344 170.906 294.469C171.844 295.594 172.312 297.266 172.312 299.484C172.312 300.953 172.094 302.191 171.656 303.199C171.227 304.199 170.621 304.957 169.84 305.473C169.066 305.98 168.164 306.234 167.133 306.234C166.477 306.234 165.906 306.148 165.422 305.977C164.938 305.805 164.523 305.582 164.18 305.309C163.836 305.027 163.547 304.723 163.312 304.395H163.148C163.188 304.707 163.223 305.055 163.254 305.438C163.293 305.812 163.312 306.156 163.312 306.469V311.754H160.547V293.027H162.797L163.184 294.82H163.312C163.555 294.453 163.848 294.113 164.191 293.801C164.543 293.488 164.965 293.242 165.457 293.062C165.957 292.875 166.539 292.781 167.203 292.781ZM166.465 295.031C165.707 295.031 165.098 295.184 164.637 295.488C164.184 295.785 163.852 296.234 163.641 296.836C163.438 297.438 163.328 298.191 163.312 299.098V299.484C163.312 300.445 163.41 301.262 163.605 301.934C163.809 302.598 164.141 303.105 164.602 303.457C165.07 303.801 165.703 303.973 166.5 303.973C167.172 303.973 167.727 303.789 168.164 303.422C168.609 303.055 168.941 302.531 169.16 301.852C169.379 301.172 169.488 300.371 169.488 299.449C169.488 298.051 169.238 296.965 168.738 296.191C168.246 295.418 167.488 295.031 166.465 295.031ZM186.984 299.484C186.984 300.562 186.844 301.52 186.562 302.355C186.281 303.191 185.871 303.898 185.332 304.477C184.793 305.047 184.145 305.484 183.387 305.789C182.629 306.086 181.773 306.234 180.82 306.234C179.93 306.234 179.113 306.086 178.371 305.789C177.629 305.484 176.984 305.047 176.438 304.477C175.898 303.898 175.48 303.191 175.184 302.355C174.887 301.52 174.738 300.562 174.738 299.484C174.738 298.055 174.984 296.844 175.477 295.852C175.977 294.852 176.688 294.09 177.609 293.566C178.531 293.043 179.629 292.781 180.902 292.781C182.098 292.781 183.152 293.043 184.066 293.566C184.98 294.09 185.695 294.852 186.211 295.852C186.727 296.852 186.984 298.062 186.984 299.484ZM177.574 299.484C177.574 300.43 177.688 301.238 177.914 301.91C178.148 302.582 178.508 303.098 178.992 303.457C179.477 303.809 180.102 303.984 180.867 303.984C181.633 303.984 182.258 303.809 182.742 303.457C183.227 303.098 183.582 302.582 183.809 301.91C184.035 301.238 184.148 300.43 184.148 299.484C184.148 298.539 184.035 297.738 183.809 297.082C183.582 296.418 183.227 295.914 182.742 295.57C182.258 295.219 181.629 295.043 180.855 295.043C179.715 295.043 178.883 295.426 178.359 296.191C177.836 296.957 177.574 298.055 177.574 299.484ZM201.633 299.484C201.633 300.562 201.492 301.52 201.211 302.355C200.93 303.191 200.52 303.898 199.98 304.477C199.441 305.047 198.793 305.484 198.035 305.789C197.277 306.086 196.422 306.234 195.469 306.234C194.578 306.234 193.762 306.086 193.02 305.789C192.277 305.484 191.633 305.047 191.086 304.477C190.547 303.898 190.129 303.191 189.832 302.355C189.535 301.52 189.387 300.562 189.387 299.484C189.387 298.055 189.633 296.844 190.125 295.852C190.625 294.852 191.336 294.09 192.258 293.566C193.18 293.043 194.277 292.781 195.551 292.781C196.746 292.781 197.801 293.043 198.715 293.566C199.629 294.09 200.344 294.852 200.859 295.852C201.375 296.852 201.633 298.062 201.633 299.484ZM192.223 299.484C192.223 300.43 192.336 301.238 192.562 301.91C192.797 302.582 193.156 303.098 193.641 303.457C194.125 303.809 194.75 303.984 195.516 303.984C196.281 303.984 196.906 303.809 197.391 303.457C197.875 303.098 198.23 302.582 198.457 301.91C198.684 301.238 198.797 300.43 198.797 299.484C198.797 298.539 198.684 297.738 198.457 297.082C198.23 296.418 197.875 295.914 197.391 295.57C196.906 295.219 196.277 295.043 195.504 295.043C194.363 295.043 193.531 295.426 193.008 296.191C192.484 296.957 192.223 298.055 192.223 299.484ZM207.562 306H204.797V287.766H207.562V306ZM220.219 302.297C220.219 303.148 220.012 303.867 219.598 304.453C219.184 305.039 218.578 305.484 217.781 305.789C216.992 306.086 216.023 306.234 214.875 306.234C213.969 306.234 213.188 306.168 212.531 306.035C211.883 305.91 211.27 305.715 210.691 305.449V303.07C211.309 303.359 212 303.609 212.766 303.82C213.539 304.031 214.27 304.137 214.957 304.137C215.863 304.137 216.516 303.996 216.914 303.715C217.312 303.426 217.512 303.043 217.512 302.566C217.512 302.285 217.43 302.035 217.266 301.816C217.109 301.59 216.812 301.359 216.375 301.125C215.945 300.883 215.312 300.594 214.477 300.258C213.656 299.93 212.965 299.602 212.402 299.273C211.84 298.945 211.414 298.551 211.125 298.09C210.836 297.621 210.691 297.023 210.691 296.297C210.691 295.148 211.145 294.277 212.051 293.684C212.965 293.082 214.172 292.781 215.672 292.781C216.469 292.781 217.219 292.863 217.922 293.027C218.633 293.184 219.328 293.414 220.008 293.719L219.141 295.793C218.555 295.535 217.965 295.324 217.371 295.16C216.785 294.988 216.188 294.902 215.578 294.902C214.867 294.902 214.324 295.012 213.949 295.23C213.582 295.449 213.398 295.762 213.398 296.168C213.398 296.473 213.488 296.73 213.668 296.941C213.848 297.152 214.156 297.363 214.594 297.574C215.039 297.785 215.656 298.047 216.445 298.359C217.219 298.656 217.887 298.969 218.449 299.297C219.02 299.617 219.457 300.012 219.762 300.48C220.066 300.949 220.219 301.555 220.219 302.297ZM232.184 293.027V306H229.43V293.027H232.184ZM230.824 288.059C231.246 288.059 231.609 288.172 231.914 288.398C232.227 288.625 232.383 289.016 232.383 289.57C232.383 290.117 232.227 290.508 231.914 290.742C231.609 290.969 231.246 291.082 230.824 291.082C230.387 291.082 230.016 290.969 229.711 290.742C229.414 290.508 229.266 290.117 229.266 289.57C229.266 289.016 229.414 288.625 229.711 288.398C230.016 288.172 230.387 288.059 230.824 288.059ZM242.895 292.781C244.355 292.781 245.492 293.16 246.305 293.918C247.125 294.668 247.535 295.875 247.535 297.539V306H244.781V298.055C244.781 297.047 244.574 296.293 244.16 295.793C243.746 295.285 243.105 295.031 242.238 295.031C240.98 295.031 240.105 295.418 239.613 296.191C239.129 296.965 238.887 298.086 238.887 299.555V306H236.133V293.027H238.277L238.664 294.785H238.816C239.098 294.332 239.445 293.961 239.859 293.672C240.281 293.375 240.75 293.152 241.266 293.004C241.789 292.855 242.332 292.781 242.895 292.781ZM255.668 293.027H258.668L261.328 300.434C261.445 300.77 261.551 301.102 261.645 301.43C261.746 301.75 261.832 302.066 261.902 302.379C261.98 302.691 262.043 303.004 262.09 303.316H262.16C262.238 302.91 262.348 302.457 262.488 301.957C262.637 301.449 262.801 300.941 262.98 300.434L265.535 293.027H268.5L262.934 307.781C262.613 308.625 262.219 309.344 261.75 309.938C261.289 310.539 260.742 310.992 260.109 311.297C259.477 311.609 258.754 311.766 257.941 311.766C257.551 311.766 257.211 311.742 256.922 311.695C256.633 311.656 256.387 311.613 256.184 311.566V309.363C256.348 309.402 256.555 309.438 256.805 309.469C257.055 309.5 257.312 309.516 257.578 309.516C258.07 309.516 258.496 309.418 258.855 309.223C259.215 309.027 259.52 308.75 259.77 308.391C260.02 308.039 260.227 307.637 260.391 307.184L260.848 305.965L255.668 293.027ZM281.953 299.484C281.953 300.562 281.812 301.52 281.531 302.355C281.25 303.191 280.84 303.898 280.301 304.477C279.762 305.047 279.113 305.484 278.355 305.789C277.598 306.086 276.742 306.234 275.789 306.234C274.898 306.234 274.082 306.086 273.34 305.789C272.598 305.484 271.953 305.047 271.406 304.477C270.867 303.898 270.449 303.191 270.152 302.355C269.855 301.52 269.707 300.562 269.707 299.484C269.707 298.055 269.953 296.844 270.445 295.852C270.945 294.852 271.656 294.09 272.578 293.566C273.5 293.043 274.598 292.781 275.871 292.781C277.066 292.781 278.121 293.043 279.035 293.566C279.949 294.09 280.664 294.852 281.18 295.852C281.695 296.852 281.953 298.062 281.953 299.484ZM272.543 299.484C272.543 300.43 272.656 301.238 272.883 301.91C273.117 302.582 273.477 303.098 273.961 303.457C274.445 303.809 275.07 303.984 275.836 303.984C276.602 303.984 277.227 303.809 277.711 303.457C278.195 303.098 278.551 302.582 278.777 301.91C279.004 301.238 279.117 300.43 279.117 299.484C279.117 298.539 279.004 297.738 278.777 297.082C278.551 296.418 278.195 295.914 277.711 295.57C277.227 295.219 276.598 295.043 275.824 295.043C274.684 295.043 273.852 295.426 273.328 296.191C272.805 296.957 272.543 298.055 272.543 299.484ZM296.426 293.027V306H294.258L293.883 304.254H293.73C293.457 304.699 293.109 305.07 292.688 305.367C292.266 305.656 291.797 305.871 291.281 306.012C290.766 306.16 290.223 306.234 289.652 306.234C288.676 306.234 287.84 306.07 287.145 305.742C286.457 305.406 285.93 304.891 285.562 304.195C285.195 303.5 285.012 302.602 285.012 301.5V293.027H287.777V300.984C287.777 301.992 287.98 302.746 288.387 303.246C288.801 303.746 289.441 303.996 290.309 303.996C291.145 303.996 291.809 303.824 292.301 303.48C292.793 303.137 293.141 302.629 293.344 301.957C293.555 301.285 293.66 300.461 293.66 299.484V293.027H296.426ZM306.949 292.781C307.168 292.781 307.406 292.793 307.664 292.816C307.922 292.84 308.145 292.871 308.332 292.91L308.074 295.488C307.91 295.441 307.707 295.406 307.465 295.383C307.23 295.359 307.02 295.348 306.832 295.348C306.34 295.348 305.871 295.43 305.426 295.594C304.98 295.75 304.586 295.992 304.242 296.32C303.898 296.641 303.629 297.043 303.434 297.527C303.238 298.012 303.141 298.574 303.141 299.215V306H300.375V293.027H302.531L302.906 295.312H303.035C303.293 294.852 303.613 294.43 303.996 294.047C304.379 293.664 304.816 293.359 305.309 293.133C305.809 292.898 306.355 292.781 306.949 292.781ZM79.1953 331.234C77.9688 331.234 76.9062 330.996 76.0078 330.52C75.1094 330.043 74.418 329.312 73.9336 328.328C73.4492 327.344 73.207 326.094 73.207 324.578C73.207 323 73.4727 321.711 74.0039 320.711C74.5352 319.711 75.2695 318.973 76.207 318.496C77.1523 318.02 78.2344 317.781 79.4531 317.781C80.2266 317.781 80.9258 317.859 81.5508 318.016C82.1836 318.164 82.7188 318.348 83.1562 318.566L82.3359 320.77C81.8594 320.574 81.3711 320.41 80.8711 320.277C80.3711 320.145 79.8906 320.078 79.4297 320.078C78.6719 320.078 78.0391 320.246 77.5312 320.582C77.0312 320.918 76.6562 321.418 76.4062 322.082C76.1641 322.746 76.043 323.57 76.043 324.555C76.043 325.508 76.168 326.312 76.418 326.969C76.668 327.617 77.0391 328.109 77.5312 328.445C78.0234 328.773 78.6289 328.938 79.3477 328.938C80.0586 328.938 80.6953 328.852 81.2578 328.68C81.8203 328.508 82.3516 328.285 82.8516 328.012V330.402C82.3594 330.684 81.832 330.891 81.2695 331.023C80.707 331.164 80.0156 331.234 79.1953 331.234ZM97.3828 324.484C97.3828 325.562 97.2422 326.52 96.9609 327.355C96.6797 328.191 96.2695 328.898 95.7305 329.477C95.1914 330.047 94.543 330.484 93.7852 330.789C93.0273 331.086 92.1719 331.234 91.2188 331.234C90.3281 331.234 89.5117 331.086 88.7695 330.789C88.0273 330.484 87.3828 330.047 86.8359 329.477C86.2969 328.898 85.8789 328.191 85.582 327.355C85.2852 326.52 85.1367 325.562 85.1367 324.484C85.1367 323.055 85.3828 321.844 85.875 320.852C86.375 319.852 87.0859 319.09 88.0078 318.566C88.9297 318.043 90.0273 317.781 91.3008 317.781C92.4961 317.781 93.5508 318.043 94.4648 318.566C95.3789 319.09 96.0938 319.852 96.6094 320.852C97.125 321.852 97.3828 323.062 97.3828 324.484ZM87.9727 324.484C87.9727 325.43 88.0859 326.238 88.3125 326.91C88.5469 327.582 88.9062 328.098 89.3906 328.457C89.875 328.809 90.5 328.984 91.2656 328.984C92.0312 328.984 92.6562 328.809 93.1406 328.457C93.625 328.098 93.9805 327.582 94.207 326.91C94.4336 326.238 94.5469 325.43 94.5469 324.484C94.5469 323.539 94.4336 322.738 94.207 322.082C93.9805 321.418 93.625 320.914 93.1406 320.57C92.6562 320.219 92.0273 320.043 91.2539 320.043C90.1133 320.043 89.2812 320.426 88.7578 321.191C88.2344 321.957 87.9727 323.055 87.9727 324.484ZM115.207 317.781C116.66 317.781 117.754 318.156 118.488 318.906C119.23 319.656 119.602 320.859 119.602 322.516V331H116.848V323.008C116.848 322.023 116.656 321.281 116.273 320.781C115.891 320.281 115.309 320.031 114.527 320.031C113.434 320.031 112.645 320.383 112.16 321.086C111.684 321.781 111.445 322.793 111.445 324.121V331H108.691V323.008C108.691 322.352 108.605 321.805 108.434 321.367C108.27 320.922 108.016 320.59 107.672 320.371C107.328 320.145 106.895 320.031 106.371 320.031C105.613 320.031 105.008 320.203 104.555 320.547C104.109 320.891 103.789 321.398 103.594 322.07C103.398 322.734 103.301 323.551 103.301 324.52V331H100.547V318.027H102.691L103.078 319.773H103.23C103.496 319.32 103.824 318.949 104.215 318.66C104.613 318.363 105.055 318.145 105.539 318.004C106.023 317.855 106.527 317.781 107.051 317.781C108.02 317.781 108.836 317.953 109.5 318.297C110.164 318.633 110.66 319.148 110.988 319.844H111.199C111.605 319.141 112.172 318.621 112.898 318.285C113.625 317.949 114.395 317.781 115.207 317.781ZM138.105 317.781C139.559 317.781 140.652 318.156 141.387 318.906C142.129 319.656 142.5 320.859 142.5 322.516V331H139.746V323.008C139.746 322.023 139.555 321.281 139.172 320.781C138.789 320.281 138.207 320.031 137.426 320.031C136.332 320.031 135.543 320.383 135.059 321.086C134.582 321.781 134.344 322.793 134.344 324.121V331H131.59V323.008C131.59 322.352 131.504 321.805 131.332 321.367C131.168 320.922 130.914 320.59 130.57 320.371C130.227 320.145 129.793 320.031 129.27 320.031C128.512 320.031 127.906 320.203 127.453 320.547C127.008 320.891 126.688 321.398 126.492 322.07C126.297 322.734 126.199 323.551 126.199 324.52V331H123.445V318.027H125.59L125.977 319.773H126.129C126.395 319.32 126.723 318.949 127.113 318.66C127.512 318.363 127.953 318.145 128.438 318.004C128.922 317.855 129.426 317.781 129.949 317.781C130.918 317.781 131.734 317.953 132.398 318.297C133.062 318.633 133.559 319.148 133.887 319.844H134.098C134.504 319.141 135.07 318.621 135.797 318.285C136.523 317.949 137.293 317.781 138.105 317.781ZM157.652 318.027V331H155.484L155.109 329.254H154.957C154.684 329.699 154.336 330.07 153.914 330.367C153.492 330.656 153.023 330.871 152.508 331.012C151.992 331.16 151.449 331.234 150.879 331.234C149.902 331.234 149.066 331.07 148.371 330.742C147.684 330.406 147.156 329.891 146.789 329.195C146.422 328.5 146.238 327.602 146.238 326.5V318.027H149.004V325.984C149.004 326.992 149.207 327.746 149.613 328.246C150.027 328.746 150.668 328.996 151.535 328.996C152.371 328.996 153.035 328.824 153.527 328.48C154.02 328.137 154.367 327.629 154.57 326.957C154.781 326.285 154.887 325.461 154.887 324.484V318.027H157.652ZM168.363 317.781C169.824 317.781 170.961 318.16 171.773 318.918C172.594 319.668 173.004 320.875 173.004 322.539V331H170.25V323.055C170.25 322.047 170.043 321.293 169.629 320.793C169.215 320.285 168.574 320.031 167.707 320.031C166.449 320.031 165.574 320.418 165.082 321.191C164.598 321.965 164.355 323.086 164.355 324.555V331H161.602V318.027H163.746L164.133 319.785H164.285C164.566 319.332 164.914 318.961 165.328 318.672C165.75 318.375 166.219 318.152 166.734 318.004C167.258 317.855 167.801 317.781 168.363 317.781ZM179.613 318.027V331H176.859V318.027H179.613ZM178.254 313.059C178.676 313.059 179.039 313.172 179.344 313.398C179.656 313.625 179.812 314.016 179.812 314.57C179.812 315.117 179.656 315.508 179.344 315.742C179.039 315.969 178.676 316.082 178.254 316.082C177.816 316.082 177.445 315.969 177.141 315.742C176.844 315.508 176.695 315.117 176.695 314.57C176.695 314.016 176.844 313.625 177.141 313.398C177.445 313.172 177.816 313.059 178.254 313.059ZM188.391 329.008C188.75 329.008 189.105 328.977 189.457 328.914C189.809 328.844 190.129 328.762 190.418 328.668V330.754C190.113 330.887 189.719 331 189.234 331.094C188.75 331.188 188.246 331.234 187.723 331.234C186.988 331.234 186.328 331.113 185.742 330.871C185.156 330.621 184.691 330.195 184.348 329.594C184.004 328.992 183.832 328.16 183.832 327.098V320.125H182.062V318.895L183.961 317.922L184.863 315.145H186.598V318.027H190.312V320.125H186.598V327.062C186.598 327.719 186.762 328.207 187.09 328.527C187.418 328.848 187.852 329.008 188.391 329.008ZM191.098 318.027H194.098L196.758 325.434C196.875 325.77 196.98 326.102 197.074 326.43C197.176 326.75 197.262 327.066 197.332 327.379C197.41 327.691 197.473 328.004 197.52 328.316H197.59C197.668 327.91 197.777 327.457 197.918 326.957C198.066 326.449 198.23 325.941 198.41 325.434L200.965 318.027H203.93L198.363 332.781C198.043 333.625 197.648 334.344 197.18 334.938C196.719 335.539 196.172 335.992 195.539 336.297C194.906 336.609 194.184 336.766 193.371 336.766C192.98 336.766 192.641 336.742 192.352 336.695C192.062 336.656 191.816 336.613 191.613 336.566V334.363C191.777 334.402 191.984 334.438 192.234 334.469C192.484 334.5 192.742 334.516 193.008 334.516C193.5 334.516 193.926 334.418 194.285 334.223C194.645 334.027 194.949 333.75 195.199 333.391C195.449 333.039 195.656 332.637 195.82 332.184L196.277 330.965L191.098 318.027ZM205.5 329.547C205.5 328.906 205.664 328.457 205.992 328.199C206.328 327.934 206.734 327.801 207.211 327.801C207.688 327.801 208.094 327.934 208.43 328.199C208.773 328.457 208.945 328.906 208.945 329.547C208.945 330.172 208.773 330.625 208.43 330.906C208.094 331.18 207.688 331.316 207.211 331.316C206.734 331.316 206.328 331.18 205.992 330.906C205.664 330.625 205.5 330.172 205.5 329.547Z" fill="white"/>
<path d="M91.86 214.24C91.4877 214.375 91.1496 214.59 90.8697 214.87C90.5897 215.15 90.3747 215.488 90.24 215.86C90.0218 216.405 89.9684 217.002 90.0864 217.578C90.2044 218.153 90.4886 218.681 90.9038 219.096C91.3191 219.511 91.8471 219.796 92.4223 219.914C92.9976 220.032 93.5948 219.978 94.14 219.76C94.5022 219.606 94.8367 219.393 95.13 219.13C95.3927 218.837 95.6056 218.502 95.76 218.14C95.9279 217.784 96.0101 217.394 96 217C95.9889 216.206 95.6782 215.445 95.13 214.87C94.7081 214.454 94.1724 214.172 93.5904 214.06C93.0085 213.947 92.4063 214.01 91.86 214.24ZM131.28 202.24L127.2 190.15C126.578 188.39 125.423 186.866 123.897 185.791C122.37 184.716 120.547 184.143 118.68 184.15H97.32C95.4529 184.143 93.6298 184.716 92.1033 185.791C90.5768 186.866 89.4223 188.39 88.8 190.15L84.72 202.33C82.801 202.832 81.1017 203.955 79.8865 205.523C78.6712 207.091 78.008 209.016 78 211V223C78.0052 224.857 78.5846 226.667 79.6588 228.181C80.733 229.696 82.2494 230.841 84 231.46V235C84 235.796 84.3161 236.559 84.8787 237.121C85.4413 237.684 86.2044 238 87 238C87.7956 238 88.5587 237.684 89.1213 237.121C89.6839 236.559 90 235.796 90 235V232H126V235C126 235.796 126.316 236.559 126.879 237.121C127.441 237.684 128.204 238 129 238C129.796 238 130.559 237.684 131.121 237.121C131.684 236.559 132 235.796 132 235V231.46C133.751 230.841 135.267 229.696 136.341 228.181C137.415 226.667 137.995 224.857 138 223V211C137.992 209.016 137.329 207.091 136.114 205.523C134.898 203.955 133.199 202.832 131.28 202.33V202.24ZM94.47 192.04C94.6713 191.444 95.0547 190.927 95.5661 190.56C96.0775 190.194 96.6911 189.998 97.32 190H118.68C119.334 189.966 119.982 190.147 120.523 190.515C121.065 190.883 121.471 191.419 121.68 192.04L124.83 202H91.17L94.47 192.04ZM132 223C132 223.796 131.684 224.559 131.121 225.121C130.559 225.684 129.796 226 129 226H87C86.2044 226 85.4413 225.684 84.8787 225.121C84.3161 224.559 84 223.796 84 223V211C84 210.204 84.3161 209.441 84.8787 208.879C85.4413 208.316 86.2044 208 87 208H129C129.796 208 130.559 208.316 131.121 208.879C131.684 209.441 132 210.204 132 211V223ZM121.86 214.24C121.488 214.375 121.15 214.59 120.87 214.87C120.59 215.15 120.375 215.488 120.24 215.86C120.022 216.405 119.968 217.002 120.086 217.578C120.204 218.153 120.489 218.681 120.904 219.096C121.319 219.511 121.847 219.796 122.422 219.914C122.998 220.032 123.595 219.978 124.14 219.76C124.512 219.625 124.85 219.41 125.13 219.13C125.41 218.85 125.625 218.512 125.76 218.14C125.928 217.784 126.01 217.394 126 217C125.989 216.206 125.678 215.445 125.13 214.87C124.708 214.454 124.172 214.172 123.59 214.06C123.008 213.947 122.406 214.01 121.86 214.24ZM111 214H105C104.204 214 103.441 214.316 102.879 214.879C102.316 215.441 102 216.204 102 217C102 217.796 102.316 218.559 102.879 219.121C103.441 219.684 104.204 220 105 220H111C111.796 220 112.559 219.684 113.121 219.121C113.684 218.559 114 217.796 114 217C114 216.204 113.684 215.441 113.121 214.879C112.559 214.316 111.796 214 111 214Z" fill="white"/>
</g>
<defs>
<linearGradient id="paint0_linear_781_890" x1="359.5" y1="0" x2="359.5" y2="900" gradientUnits="userSpaceOnUse">
<stop stop-color="#FECC01"/>
<stop offset="1" stop-color="#A5C2CF"/>
</linearGradient>
<clipPath id="clip0_781_890">
<rect width="719" height="900" fill="white"/>
</clipPath>
</defs>
</svg>
