<svg width="1440" height="234" viewBox="0 0 1440 234" fill="none" xmlns="http://www.w3.org/2000/svg">
<g clip-path="url(#clip0_813_353)">
<rect width="1440" height="234" fill="url(#paint0_linear_813_353)"/>
<circle opacity="0.2" cx="54.5" cy="42.5" r="102.5" fill="#A5C2CF"/>
<circle opacity="0.2" cx="55" cy="42" r="154" fill="#A5C2CF"/>
<circle opacity="0.2" cx="55" cy="42" r="215" fill="#A5C2CF"/>
<circle opacity="0.2" cx="55" cy="42" r="299" fill="#A5C2CF"/>
<circle opacity="0.2" cx="1439.5" cy="169.5" r="102.5" fill="#A5C2CF"/>
<circle opacity="0.2" cx="1440" cy="169" r="154" fill="#A5C2CF"/>
<circle opacity="0.2" cx="1440" cy="169" r="215" fill="#A5C2CF"/>
<circle opacity="0.2" cx="1440" cy="169" r="299" fill="#A5C2CF"/>
<circle opacity="0.1" cx="720.25" cy="341.25" r="115.5" fill="#FECC01"/>
<circle opacity="0.1" cx="720.25" cy="341.25" r="161.25" fill="#FECC01"/>
<circle opacity="0.1" cx="720.25" cy="341.25" r="224.25" fill="#FECC01"/>
<path d="M1246.06 -78.9456C1202.75 84.9219 1153.08 336.385 1019.19 138.876C885.306 -58.6338 775.251 132.891 756.314 432.504" stroke="white" stroke-width="15" stroke-linecap="round" stroke-dasharray="52.5 37.5"/>
<path d="M127.723 79.0742C126.564 79.0742 125.535 79.3021 124.637 79.7578C123.751 80.2005 123.003 80.8451 122.391 81.6914C121.792 82.5378 121.336 83.5599 121.023 84.7578C120.711 85.9557 120.555 87.3034 120.555 88.8008C120.555 90.819 120.802 92.5443 121.297 93.9766C121.805 95.3958 122.586 96.4831 123.641 97.2383C124.695 97.9805 126.056 98.3516 127.723 98.3516C128.882 98.3516 130.04 98.2214 131.199 97.9609C132.371 97.7005 133.641 97.3294 135.008 96.8477V101.926C133.745 102.447 132.501 102.818 131.277 103.039C130.053 103.273 128.68 103.391 127.156 103.391C124.214 103.391 121.792 102.785 119.891 101.574C118.003 100.35 116.603 98.6445 115.691 96.457C114.78 94.2565 114.324 91.6914 114.324 88.7617C114.324 86.6003 114.617 84.6211 115.203 82.8242C115.789 81.0273 116.648 79.4714 117.781 78.1562C118.914 76.8411 120.314 75.8255 121.98 75.1094C123.647 74.3932 125.561 74.0352 127.723 74.0352C129.142 74.0352 130.561 74.2174 131.98 74.582C133.413 74.9336 134.78 75.4219 136.082 76.0469L134.129 80.9688C133.061 80.4609 131.987 80.0182 130.906 79.6406C129.826 79.263 128.764 79.0742 127.723 79.0742ZM160.477 92.043C160.477 93.8659 160.229 95.4805 159.734 96.8867C159.253 98.293 158.543 99.4844 157.605 100.461C156.681 101.424 155.561 102.154 154.246 102.648C152.944 103.143 151.473 103.391 149.832 103.391C148.296 103.391 146.883 103.143 145.594 102.648C144.318 102.154 143.204 101.424 142.254 100.461C141.316 99.4844 140.587 98.293 140.066 96.8867C139.559 95.4805 139.305 93.8659 139.305 92.043C139.305 89.6211 139.734 87.5703 140.594 85.8906C141.453 84.2109 142.677 82.9349 144.266 82.0625C145.854 81.1901 147.749 80.7539 149.949 80.7539C151.993 80.7539 153.803 81.1901 155.379 82.0625C156.967 82.9349 158.211 84.2109 159.109 85.8906C160.021 87.5703 160.477 89.6211 160.477 92.043ZM145.379 92.043C145.379 93.4753 145.535 94.6797 145.848 95.6562C146.16 96.6328 146.648 97.3685 147.312 97.8633C147.977 98.3581 148.842 98.6055 149.91 98.6055C150.965 98.6055 151.818 98.3581 152.469 97.8633C153.133 97.3685 153.615 96.6328 153.914 95.6562C154.227 94.6797 154.383 93.4753 154.383 92.043C154.383 90.5977 154.227 89.3997 153.914 88.4492C153.615 87.4857 153.133 86.763 152.469 86.2812C151.805 85.7995 150.939 85.5586 149.871 85.5586C148.296 85.5586 147.15 86.099 146.434 87.1797C145.73 88.2604 145.379 89.8815 145.379 92.043ZM177.801 80.7539C180.132 80.7539 182.007 81.3919 183.426 82.668C184.845 83.931 185.555 85.9622 185.555 88.7617V103H179.598V90.2461C179.598 88.6836 179.311 87.5052 178.738 86.7109C178.178 85.9167 177.293 85.5195 176.082 85.5195C174.259 85.5195 173.016 86.138 172.352 87.375C171.688 88.612 171.355 90.3958 171.355 92.7266V103H165.398V81.1641H169.949L170.75 83.957H171.082C171.551 83.2018 172.13 82.5898 172.82 82.1211C173.523 81.6523 174.298 81.3073 175.145 81.0859C176.004 80.8646 176.889 80.7539 177.801 80.7539ZM204.09 80.7539C206.421 80.7539 208.296 81.3919 209.715 82.668C211.134 83.931 211.844 85.9622 211.844 88.7617V103H205.887V90.2461C205.887 88.6836 205.6 87.5052 205.027 86.7109C204.467 85.9167 203.582 85.5195 202.371 85.5195C200.548 85.5195 199.305 86.138 198.641 87.375C197.977 88.612 197.645 90.3958 197.645 92.7266V103H191.688V81.1641H196.238L197.039 83.957H197.371C197.84 83.2018 198.419 82.5898 199.109 82.1211C199.812 81.6523 200.587 81.3073 201.434 81.0859C202.293 80.8646 203.178 80.7539 204.09 80.7539ZM226.98 80.7539C228.999 80.7539 230.737 81.1445 232.195 81.9258C233.654 82.694 234.78 83.8138 235.574 85.2852C236.368 86.7565 236.766 88.5534 236.766 90.6758V93.5664H222.684C222.749 95.2461 223.25 96.5677 224.188 97.5312C225.138 98.4818 226.453 98.957 228.133 98.957C229.526 98.957 230.802 98.8138 231.961 98.5273C233.12 98.2409 234.311 97.8112 235.535 97.2383V101.848C234.454 102.382 233.322 102.772 232.137 103.02C230.965 103.267 229.539 103.391 227.859 103.391C225.672 103.391 223.732 102.987 222.039 102.18C220.359 101.372 219.038 100.142 218.074 98.4883C217.124 96.8346 216.648 94.7513 216.648 92.2383C216.648 89.6862 217.078 87.5638 217.938 85.8711C218.81 84.1654 220.021 82.8893 221.57 82.043C223.12 81.1836 224.923 80.7539 226.98 80.7539ZM227.02 84.9922C225.861 84.9922 224.897 85.3633 224.129 86.1055C223.374 86.8477 222.938 88.013 222.82 89.6016H231.18C231.167 88.7161 231.004 87.9284 230.691 87.2383C230.392 86.5482 229.936 86.0013 229.324 85.5977C228.725 85.194 227.957 84.9922 227.02 84.9922ZM250.477 103.391C248.315 103.391 246.473 103 244.949 102.219C243.426 101.424 242.267 100.201 241.473 98.5469C240.678 96.8932 240.281 94.7773 240.281 92.1992C240.281 89.5299 240.73 87.3555 241.629 85.6758C242.54 83.9831 243.797 82.7396 245.398 81.9453C247.013 81.151 248.882 80.7539 251.004 80.7539C252.514 80.7539 253.816 80.9036 254.91 81.2031C256.017 81.4896 256.98 81.8346 257.801 82.2383L256.043 86.8477C255.105 86.4701 254.233 86.1641 253.426 85.9297C252.618 85.6823 251.811 85.5586 251.004 85.5586C249.962 85.5586 249.096 85.806 248.406 86.3008C247.716 86.7826 247.202 87.5117 246.863 88.4883C246.525 89.4648 246.355 90.6888 246.355 92.1602C246.355 93.6055 246.538 94.8034 246.902 95.7539C247.267 96.7044 247.794 97.4141 248.484 97.8828C249.174 98.3385 250.014 98.5664 251.004 98.5664C252.241 98.5664 253.341 98.4036 254.305 98.0781C255.268 97.7396 256.206 97.2708 257.117 96.6719V101.77C256.206 102.342 255.249 102.753 254.246 103C253.257 103.26 252 103.391 250.477 103.391ZM271.395 98.6445C272.046 98.6445 272.677 98.5794 273.289 98.4492C273.914 98.319 274.533 98.1562 275.145 97.9609V102.395C274.507 102.681 273.712 102.915 272.762 103.098C271.824 103.293 270.796 103.391 269.676 103.391C268.374 103.391 267.202 103.182 266.16 102.766C265.132 102.336 264.318 101.6 263.719 100.559C263.133 99.5039 262.84 98.0391 262.84 96.1641V85.6367H259.988V83.1172L263.27 81.125L264.988 76.5156H268.797V81.1641H274.91V85.6367H268.797V96.1641C268.797 96.9974 269.031 97.6224 269.5 98.0391C269.982 98.4427 270.613 98.6445 271.395 98.6445ZM285.535 81.1641V103H279.578V81.1641H285.535ZM282.566 72.6094C283.452 72.6094 284.214 72.8177 284.852 73.2344C285.49 73.638 285.809 74.3997 285.809 75.5195C285.809 76.6263 285.49 77.3945 284.852 77.8242C284.214 78.2409 283.452 78.4492 282.566 78.4492C281.668 78.4492 280.9 78.2409 280.262 77.8242C279.637 77.3945 279.324 76.6263 279.324 75.5195C279.324 74.3997 279.637 73.638 280.262 73.2344C280.9 72.8177 281.668 72.6094 282.566 72.6094ZM304.207 80.7539C306.538 80.7539 308.413 81.3919 309.832 82.668C311.251 83.931 311.961 85.9622 311.961 88.7617V103H306.004V90.2461C306.004 88.6836 305.717 87.5052 305.145 86.7109C304.585 85.9167 303.699 85.5195 302.488 85.5195C300.665 85.5195 299.422 86.138 298.758 87.375C298.094 88.612 297.762 90.3958 297.762 92.7266V103H291.805V81.1641H296.355L297.156 83.957H297.488C297.957 83.2018 298.536 82.5898 299.227 82.1211C299.93 81.6523 300.704 81.3073 301.551 81.0859C302.41 80.8646 303.296 80.7539 304.207 80.7539ZM324.48 112.609C321.434 112.609 319.103 112.076 317.488 111.008C315.887 109.953 315.086 108.469 315.086 106.555C315.086 105.24 315.496 104.139 316.316 103.254C317.137 102.368 318.341 101.737 319.93 101.359C319.318 101.099 318.784 100.676 318.328 100.09C317.872 99.4909 317.645 98.8594 317.645 98.1953C317.645 97.362 317.885 96.6719 318.367 96.125C318.849 95.5651 319.546 95.0182 320.457 94.4844C319.311 93.9896 318.4 93.1953 317.723 92.1016C317.059 91.0078 316.727 89.7188 316.727 88.2344C316.727 86.6458 317.072 85.2982 317.762 84.1914C318.465 83.0716 319.48 82.2188 320.809 81.6328C322.15 81.0469 323.777 80.7539 325.691 80.7539C326.095 80.7539 326.564 80.7799 327.098 80.832C327.632 80.8841 328.12 80.9427 328.562 81.0078C329.018 81.0729 329.324 81.125 329.48 81.1641H337.098V84.1914L333.68 85.0703C333.992 85.5521 334.227 86.0664 334.383 86.6133C334.539 87.1602 334.617 87.7396 334.617 88.3516C334.617 90.6953 333.797 92.5247 332.156 93.8398C330.529 95.1419 328.263 95.793 325.359 95.793C324.669 95.7539 324.018 95.7018 323.406 95.6367C323.107 95.8711 322.879 96.1185 322.723 96.3789C322.566 96.6393 322.488 96.9128 322.488 97.1992C322.488 97.4857 322.605 97.7266 322.84 97.9219C323.087 98.1042 323.452 98.2474 323.934 98.3516C324.428 98.4427 325.04 98.4883 325.77 98.4883H329.48C331.876 98.4883 333.699 99.0026 334.949 100.031C336.212 101.06 336.844 102.57 336.844 104.562C336.844 107.115 335.776 109.094 333.641 110.5C331.518 111.906 328.465 112.609 324.48 112.609ZM324.734 108.723C326.154 108.723 327.371 108.586 328.387 108.312C329.415 108.052 330.203 107.674 330.75 107.18C331.297 106.698 331.57 106.118 331.57 105.441C331.57 104.895 331.408 104.458 331.082 104.133C330.77 103.82 330.288 103.599 329.637 103.469C328.999 103.339 328.178 103.273 327.176 103.273H324.09C323.361 103.273 322.703 103.391 322.117 103.625C321.544 103.859 321.089 104.185 320.75 104.602C320.411 105.031 320.242 105.526 320.242 106.086C320.242 106.906 320.633 107.551 321.414 108.02C322.208 108.488 323.315 108.723 324.734 108.723ZM325.691 92.1602C326.811 92.1602 327.632 91.8151 328.152 91.125C328.673 90.4349 328.934 89.4974 328.934 88.3125C328.934 86.9974 328.66 86.0143 328.113 85.3633C327.579 84.6992 326.772 84.3672 325.691 84.3672C324.598 84.3672 323.777 84.6992 323.23 85.3633C322.684 86.0143 322.41 86.9974 322.41 88.3125C322.41 89.4974 322.677 90.4349 323.211 91.125C323.758 91.8151 324.585 92.1602 325.691 92.1602ZM357.527 103H351.57V74.4453H367.938V79.4062H357.527V86.7695H367.215V91.7109H357.527V103ZM382 80.7148C384.93 80.7148 387.176 81.3529 388.738 82.6289C390.301 83.9049 391.082 85.8451 391.082 88.4492V103H386.922L385.77 100.031H385.613C384.988 100.812 384.35 101.451 383.699 101.945C383.048 102.44 382.299 102.805 381.453 103.039C380.607 103.273 379.578 103.391 378.367 103.391C377.078 103.391 375.919 103.143 374.891 102.648C373.875 102.154 373.074 101.398 372.488 100.383C371.902 99.3542 371.609 98.0521 371.609 96.4766C371.609 94.1589 372.423 92.4531 374.051 91.3594C375.678 90.2526 378.12 89.6406 381.375 89.5234L385.164 89.4062V88.4492C385.164 87.3034 384.865 86.4635 384.266 85.9297C383.667 85.3958 382.833 85.1289 381.766 85.1289C380.711 85.1289 379.676 85.2786 378.66 85.5781C377.645 85.8776 376.629 86.2552 375.613 86.7109L373.641 82.6875C374.799 82.0755 376.095 81.5938 377.527 81.2422C378.973 80.8906 380.464 80.7148 382 80.7148ZM385.164 92.8828L382.859 92.9609C380.932 93.013 379.591 93.3581 378.836 93.9961C378.094 94.6341 377.723 95.474 377.723 96.5156C377.723 97.4271 377.99 98.0781 378.523 98.4688C379.057 98.8464 379.754 99.0352 380.613 99.0352C381.889 99.0352 382.964 98.6576 383.836 97.9023C384.721 97.1471 385.164 96.0729 385.164 94.6797V92.8828ZM422.879 80.7539C425.353 80.7539 427.221 81.3919 428.484 82.668C429.76 83.931 430.398 85.9622 430.398 88.7617V103H424.422V90.2461C424.422 88.6836 424.155 87.5052 423.621 86.7109C423.087 85.9167 422.26 85.5195 421.141 85.5195C419.565 85.5195 418.445 86.0859 417.781 87.2188C417.117 88.3385 416.785 89.9466 416.785 92.043V103H410.828V90.2461C410.828 89.2044 410.711 88.332 410.477 87.6289C410.242 86.9258 409.884 86.3984 409.402 86.0469C408.921 85.6953 408.302 85.5195 407.547 85.5195C406.44 85.5195 405.568 85.7995 404.93 86.3594C404.305 86.9062 403.855 87.7201 403.582 88.8008C403.322 89.8685 403.191 91.1771 403.191 92.7266V103H397.234V81.1641H401.785L402.586 83.957H402.918C403.361 83.2018 403.914 82.5898 404.578 82.1211C405.255 81.6523 405.997 81.3073 406.805 81.0859C407.612 80.8646 408.432 80.7539 409.266 80.7539C410.867 80.7539 412.221 81.0143 413.328 81.5352C414.448 82.056 415.307 82.8633 415.906 83.957H416.434C417.085 82.8372 418.003 82.0234 419.188 81.5156C420.385 81.0078 421.616 80.7539 422.879 80.7539ZM442.488 81.1641V103H436.531V81.1641H442.488ZM439.52 72.6094C440.405 72.6094 441.167 72.8177 441.805 73.2344C442.443 73.638 442.762 74.3997 442.762 75.5195C442.762 76.6263 442.443 77.3945 441.805 77.8242C441.167 78.2409 440.405 78.4492 439.52 78.4492C438.621 78.4492 437.853 78.2409 437.215 77.8242C436.59 77.3945 436.277 76.6263 436.277 75.5195C436.277 74.3997 436.59 73.638 437.215 73.2344C437.853 72.8177 438.621 72.6094 439.52 72.6094ZM454.715 103H448.758V72.6094H454.715V103ZM466.941 81.1641V103H460.984V81.1641H466.941ZM463.973 72.6094C464.858 72.6094 465.62 72.8177 466.258 73.2344C466.896 73.638 467.215 74.3997 467.215 75.5195C467.215 76.6263 466.896 77.3945 466.258 77.8242C465.62 78.2409 464.858 78.4492 463.973 78.4492C463.074 78.4492 462.306 78.2409 461.668 77.8242C461.043 77.3945 460.73 76.6263 460.73 75.5195C460.73 74.3997 461.043 73.638 461.668 73.2344C462.306 72.8177 463.074 72.6094 463.973 72.6094ZM482.215 80.7539C484.233 80.7539 485.971 81.1445 487.43 81.9258C488.888 82.694 490.014 83.8138 490.809 85.2852C491.603 86.7565 492 88.5534 492 90.6758V93.5664H477.918C477.983 95.2461 478.484 96.5677 479.422 97.5312C480.372 98.4818 481.688 98.957 483.367 98.957C484.76 98.957 486.036 98.8138 487.195 98.5273C488.354 98.2409 489.546 97.8112 490.77 97.2383V101.848C489.689 102.382 488.556 102.772 487.371 103.02C486.199 103.267 484.773 103.391 483.094 103.391C480.906 103.391 478.966 102.987 477.273 102.18C475.594 101.372 474.272 100.142 473.309 98.4883C472.358 96.8346 471.883 94.7513 471.883 92.2383C471.883 89.6862 472.312 87.5638 473.172 85.8711C474.044 84.1654 475.255 82.8893 476.805 82.043C478.354 81.1836 480.158 80.7539 482.215 80.7539ZM482.254 84.9922C481.095 84.9922 480.132 85.3633 479.363 86.1055C478.608 86.8477 478.172 88.013 478.055 89.6016H486.414C486.401 88.7161 486.238 87.9284 485.926 87.2383C485.626 86.5482 485.171 86.0013 484.559 85.5977C483.96 85.194 483.191 84.9922 482.254 84.9922ZM512.078 96.5156C512.078 98 511.727 99.2565 511.023 100.285C510.333 101.301 509.298 102.076 507.918 102.609C506.538 103.13 504.819 103.391 502.762 103.391C501.238 103.391 499.93 103.293 498.836 103.098C497.755 102.902 496.661 102.577 495.555 102.121V97.1992C496.74 97.7331 498.009 98.1758 499.363 98.5273C500.73 98.8659 501.928 99.0352 502.957 99.0352C504.116 99.0352 504.943 98.8659 505.438 98.5273C505.945 98.1758 506.199 97.7201 506.199 97.1602C506.199 96.7956 506.095 96.4701 505.887 96.1836C505.691 95.8841 505.262 95.5521 504.598 95.1875C503.934 94.8099 502.892 94.3216 501.473 93.7227C500.105 93.1497 498.979 92.5703 498.094 91.9844C497.221 91.3984 496.57 90.7083 496.141 89.9141C495.724 89.1068 495.516 88.0846 495.516 86.8477C495.516 84.8294 496.297 83.3125 497.859 82.2969C499.435 81.2682 501.538 80.7539 504.168 80.7539C505.522 80.7539 506.811 80.8906 508.035 81.1641C509.272 81.4375 510.542 81.8737 511.844 82.4727L510.047 86.7695C508.966 86.3008 507.944 85.9167 506.98 85.6172C506.03 85.3177 505.06 85.168 504.07 85.168C503.198 85.168 502.54 85.2852 502.098 85.5195C501.655 85.7539 501.434 86.112 501.434 86.5938C501.434 86.9453 501.544 87.2578 501.766 87.5312C502 87.8047 502.443 88.1107 503.094 88.4492C503.758 88.7747 504.728 89.1979 506.004 89.7188C507.241 90.2266 508.315 90.7604 509.227 91.3203C510.138 91.8672 510.841 92.5508 511.336 93.3711C511.831 94.1784 512.078 95.2266 512.078 96.5156ZM522.273 98.3516L522.566 98.8008C522.332 99.7383 522.026 100.747 521.648 101.828C521.284 102.909 520.88 103.99 520.438 105.07C520.008 106.151 519.572 107.18 519.129 108.156H514.832C515.092 107.102 515.346 105.995 515.594 104.836C515.841 103.677 516.069 102.538 516.277 101.418C516.499 100.298 516.674 99.276 516.805 98.3516H522.273Z" fill="white"/>
<path d="M141.512 148.684C141.512 150.884 141.238 152.889 140.691 154.699C140.145 156.496 139.311 158.046 138.191 159.348C137.085 160.65 135.678 161.652 133.973 162.355C132.267 163.046 130.249 163.391 127.918 163.391C125.587 163.391 123.569 163.046 121.863 162.355C120.158 161.652 118.745 160.65 117.625 159.348C116.518 158.046 115.691 156.49 115.145 154.68C114.598 152.87 114.324 150.858 114.324 148.645C114.324 145.689 114.806 143.117 115.77 140.93C116.746 138.729 118.243 137.023 120.262 135.812C122.28 134.602 124.845 133.996 127.957 133.996C131.056 133.996 133.602 134.602 135.594 135.812C137.599 137.023 139.083 138.729 140.047 140.93C141.023 143.13 141.512 145.715 141.512 148.684ZM120.672 148.684C120.672 150.676 120.919 152.395 121.414 153.84C121.922 155.272 122.71 156.379 123.777 157.16C124.845 157.928 126.225 158.312 127.918 158.312C129.637 158.312 131.03 157.928 132.098 157.16C133.165 156.379 133.94 155.272 134.422 153.84C134.917 152.395 135.164 150.676 135.164 148.684C135.164 145.689 134.604 143.332 133.484 141.613C132.365 139.895 130.522 139.035 127.957 139.035C126.251 139.035 124.858 139.426 123.777 140.207C122.71 140.975 121.922 142.082 121.414 143.527C120.919 144.96 120.672 146.678 120.672 148.684ZM159.363 140.754C161.694 140.754 163.569 141.392 164.988 142.668C166.408 143.931 167.117 145.962 167.117 148.762V163H161.16V150.246C161.16 148.684 160.874 147.505 160.301 146.711C159.741 145.917 158.855 145.52 157.645 145.52C155.822 145.52 154.578 146.138 153.914 147.375C153.25 148.612 152.918 150.396 152.918 152.727V163H146.961V141.164H151.512L152.312 143.957H152.645C153.113 143.202 153.693 142.59 154.383 142.121C155.086 141.652 155.861 141.307 156.707 141.086C157.566 140.865 158.452 140.754 159.363 140.754ZM182.254 140.754C184.272 140.754 186.01 141.145 187.469 141.926C188.927 142.694 190.053 143.814 190.848 145.285C191.642 146.757 192.039 148.553 192.039 150.676V153.566H177.957C178.022 155.246 178.523 156.568 179.461 157.531C180.411 158.482 181.727 158.957 183.406 158.957C184.799 158.957 186.076 158.814 187.234 158.527C188.393 158.241 189.585 157.811 190.809 157.238V161.848C189.728 162.382 188.595 162.772 187.41 163.02C186.238 163.267 184.812 163.391 183.133 163.391C180.945 163.391 179.005 162.987 177.312 162.18C175.633 161.372 174.311 160.142 173.348 158.488C172.397 156.835 171.922 154.751 171.922 152.238C171.922 149.686 172.352 147.564 173.211 145.871C174.083 144.165 175.294 142.889 176.844 142.043C178.393 141.184 180.197 140.754 182.254 140.754ZM182.293 144.992C181.134 144.992 180.171 145.363 179.402 146.105C178.647 146.848 178.211 148.013 178.094 149.602H186.453C186.44 148.716 186.277 147.928 185.965 147.238C185.665 146.548 185.21 146.001 184.598 145.598C183.999 145.194 183.23 144.992 182.293 144.992ZM219.871 139.074C218.712 139.074 217.684 139.302 216.785 139.758C215.9 140.201 215.151 140.845 214.539 141.691C213.94 142.538 213.484 143.56 213.172 144.758C212.859 145.956 212.703 147.303 212.703 148.801C212.703 150.819 212.951 152.544 213.445 153.977C213.953 155.396 214.734 156.483 215.789 157.238C216.844 157.98 218.204 158.352 219.871 158.352C221.03 158.352 222.189 158.221 223.348 157.961C224.52 157.701 225.789 157.329 227.156 156.848V161.926C225.893 162.447 224.65 162.818 223.426 163.039C222.202 163.273 220.828 163.391 219.305 163.391C216.362 163.391 213.94 162.785 212.039 161.574C210.151 160.35 208.751 158.645 207.84 156.457C206.928 154.257 206.473 151.691 206.473 148.762C206.473 146.6 206.766 144.621 207.352 142.824C207.938 141.027 208.797 139.471 209.93 138.156C211.062 136.841 212.462 135.826 214.129 135.109C215.796 134.393 217.71 134.035 219.871 134.035C221.29 134.035 222.71 134.217 224.129 134.582C225.561 134.934 226.928 135.422 228.23 136.047L226.277 140.969C225.21 140.461 224.135 140.018 223.055 139.641C221.974 139.263 220.913 139.074 219.871 139.074ZM241.727 140.715C244.656 140.715 246.902 141.353 248.465 142.629C250.027 143.905 250.809 145.845 250.809 148.449V163H246.648L245.496 160.031H245.34C244.715 160.812 244.077 161.451 243.426 161.945C242.775 162.44 242.026 162.805 241.18 163.039C240.333 163.273 239.305 163.391 238.094 163.391C236.805 163.391 235.646 163.143 234.617 162.648C233.602 162.154 232.801 161.398 232.215 160.383C231.629 159.354 231.336 158.052 231.336 156.477C231.336 154.159 232.15 152.453 233.777 151.359C235.405 150.253 237.846 149.641 241.102 149.523L244.891 149.406V148.449C244.891 147.303 244.591 146.464 243.992 145.93C243.393 145.396 242.56 145.129 241.492 145.129C240.438 145.129 239.402 145.279 238.387 145.578C237.371 145.878 236.355 146.255 235.34 146.711L233.367 142.688C234.526 142.076 235.822 141.594 237.254 141.242C238.699 140.891 240.19 140.715 241.727 140.715ZM244.891 152.883L242.586 152.961C240.659 153.013 239.318 153.358 238.562 153.996C237.82 154.634 237.449 155.474 237.449 156.516C237.449 157.427 237.716 158.078 238.25 158.469C238.784 158.846 239.48 159.035 240.34 159.035C241.616 159.035 242.69 158.658 243.562 157.902C244.448 157.147 244.891 156.073 244.891 154.68V152.883ZM269.148 140.754C269.448 140.754 269.793 140.773 270.184 140.812C270.587 140.839 270.913 140.878 271.16 140.93L270.711 146.516C270.516 146.451 270.236 146.405 269.871 146.379C269.52 146.34 269.214 146.32 268.953 146.32C268.185 146.32 267.436 146.418 266.707 146.613C265.991 146.809 265.346 147.128 264.773 147.57C264.201 148 263.745 148.573 263.406 149.289C263.081 149.992 262.918 150.858 262.918 151.887V163H256.961V141.164H261.473L262.352 144.836H262.645C263.074 144.094 263.608 143.417 264.246 142.805C264.897 142.18 265.633 141.685 266.453 141.32C267.286 140.943 268.185 140.754 269.148 140.754ZM287.273 140.754C289.734 140.754 291.72 141.711 293.23 143.625C294.754 145.539 295.516 148.345 295.516 152.043C295.516 154.517 295.158 156.6 294.441 158.293C293.725 159.973 292.736 161.242 291.473 162.102C290.21 162.961 288.758 163.391 287.117 163.391C286.062 163.391 285.158 163.26 284.402 163C283.647 162.727 283.003 162.382 282.469 161.965C281.935 161.535 281.473 161.079 281.082 160.598H280.77C280.874 161.118 280.952 161.652 281.004 162.199C281.056 162.746 281.082 163.28 281.082 163.801V172.609H275.125V141.164H279.969L280.809 143.996H281.082C281.473 143.41 281.948 142.87 282.508 142.375C283.068 141.88 283.738 141.49 284.52 141.203C285.314 140.904 286.232 140.754 287.273 140.754ZM285.359 145.52C284.318 145.52 283.491 145.734 282.879 146.164C282.267 146.594 281.818 147.238 281.531 148.098C281.258 148.957 281.108 150.044 281.082 151.359V152.004C281.082 153.41 281.212 154.602 281.473 155.578C281.746 156.555 282.195 157.297 282.82 157.805C283.458 158.312 284.331 158.566 285.438 158.566C286.349 158.566 287.098 158.312 287.684 157.805C288.27 157.297 288.706 156.555 288.992 155.578C289.292 154.589 289.441 153.384 289.441 151.965C289.441 149.829 289.109 148.221 288.445 147.141C287.781 146.06 286.753 145.52 285.359 145.52ZM320.281 152.043C320.281 153.866 320.034 155.48 319.539 156.887C319.057 158.293 318.348 159.484 317.41 160.461C316.486 161.424 315.366 162.154 314.051 162.648C312.749 163.143 311.277 163.391 309.637 163.391C308.1 163.391 306.688 163.143 305.398 162.648C304.122 162.154 303.009 161.424 302.059 160.461C301.121 159.484 300.392 158.293 299.871 156.887C299.363 155.48 299.109 153.866 299.109 152.043C299.109 149.621 299.539 147.57 300.398 145.891C301.258 144.211 302.482 142.935 304.07 142.062C305.659 141.19 307.553 140.754 309.754 140.754C311.798 140.754 313.608 141.19 315.184 142.062C316.772 142.935 318.016 144.211 318.914 145.891C319.826 147.57 320.281 149.621 320.281 152.043ZM305.184 152.043C305.184 153.475 305.34 154.68 305.652 155.656C305.965 156.633 306.453 157.368 307.117 157.863C307.781 158.358 308.647 158.605 309.715 158.605C310.77 158.605 311.622 158.358 312.273 157.863C312.938 157.368 313.419 156.633 313.719 155.656C314.031 154.68 314.188 153.475 314.188 152.043C314.188 150.598 314.031 149.4 313.719 148.449C313.419 147.486 312.938 146.763 312.273 146.281C311.609 145.799 310.743 145.559 309.676 145.559C308.1 145.559 306.954 146.099 306.238 147.18C305.535 148.26 305.184 149.882 305.184 152.043ZM345.047 152.043C345.047 153.866 344.799 155.48 344.305 156.887C343.823 158.293 343.113 159.484 342.176 160.461C341.251 161.424 340.132 162.154 338.816 162.648C337.514 163.143 336.043 163.391 334.402 163.391C332.866 163.391 331.453 163.143 330.164 162.648C328.888 162.154 327.775 161.424 326.824 160.461C325.887 159.484 325.158 158.293 324.637 156.887C324.129 155.48 323.875 153.866 323.875 152.043C323.875 149.621 324.305 147.57 325.164 145.891C326.023 144.211 327.247 142.935 328.836 142.062C330.424 141.19 332.319 140.754 334.52 140.754C336.564 140.754 338.374 141.19 339.949 142.062C341.538 142.935 342.781 144.211 343.68 145.891C344.591 147.57 345.047 149.621 345.047 152.043ZM329.949 152.043C329.949 153.475 330.105 154.68 330.418 155.656C330.73 156.633 331.219 157.368 331.883 157.863C332.547 158.358 333.413 158.605 334.48 158.605C335.535 158.605 336.388 158.358 337.039 157.863C337.703 157.368 338.185 156.633 338.484 155.656C338.797 154.68 338.953 153.475 338.953 152.043C338.953 150.598 338.797 149.4 338.484 148.449C338.185 147.486 337.703 146.763 337.039 146.281C336.375 145.799 335.509 145.559 334.441 145.559C332.866 145.559 331.72 146.099 331.004 147.18C330.301 148.26 329.949 149.882 329.949 152.043ZM355.926 163H349.969V132.609H355.926V163ZM381.531 140.715C384.461 140.715 386.707 141.353 388.27 142.629C389.832 143.905 390.613 145.845 390.613 148.449V163H386.453L385.301 160.031H385.145C384.52 160.812 383.882 161.451 383.23 161.945C382.579 162.44 381.831 162.805 380.984 163.039C380.138 163.273 379.109 163.391 377.898 163.391C376.609 163.391 375.451 163.143 374.422 162.648C373.406 162.154 372.605 161.398 372.02 160.383C371.434 159.354 371.141 158.052 371.141 156.477C371.141 154.159 371.954 152.453 373.582 151.359C375.21 150.253 377.651 149.641 380.906 149.523L384.695 149.406V148.449C384.695 147.303 384.396 146.464 383.797 145.93C383.198 145.396 382.365 145.129 381.297 145.129C380.242 145.129 379.207 145.279 378.191 145.578C377.176 145.878 376.16 146.255 375.145 146.711L373.172 142.688C374.331 142.076 375.626 141.594 377.059 141.242C378.504 140.891 379.995 140.715 381.531 140.715ZM384.695 152.883L382.391 152.961C380.464 153.013 379.122 153.358 378.367 153.996C377.625 154.634 377.254 155.474 377.254 156.516C377.254 157.427 377.521 158.078 378.055 158.469C378.589 158.846 379.285 159.035 380.145 159.035C381.421 159.035 382.495 158.658 383.367 157.902C384.253 157.147 384.695 156.073 384.695 154.68V152.883ZM405.965 158.645C406.616 158.645 407.247 158.579 407.859 158.449C408.484 158.319 409.103 158.156 409.715 157.961V162.395C409.077 162.681 408.283 162.915 407.332 163.098C406.395 163.293 405.366 163.391 404.246 163.391C402.944 163.391 401.772 163.182 400.73 162.766C399.702 162.336 398.888 161.6 398.289 160.559C397.703 159.504 397.41 158.039 397.41 156.164V145.637H394.559V143.117L397.84 141.125L399.559 136.516H403.367V141.164H409.48V145.637H403.367V156.164C403.367 156.997 403.602 157.622 404.07 158.039C404.552 158.443 405.184 158.645 405.965 158.645ZM433.484 140.715C436.414 140.715 438.66 141.353 440.223 142.629C441.785 143.905 442.566 145.845 442.566 148.449V163H438.406L437.254 160.031H437.098C436.473 160.812 435.835 161.451 435.184 161.945C434.533 162.44 433.784 162.805 432.938 163.039C432.091 163.273 431.062 163.391 429.852 163.391C428.562 163.391 427.404 163.143 426.375 162.648C425.359 162.154 424.559 161.398 423.973 160.383C423.387 159.354 423.094 158.052 423.094 156.477C423.094 154.159 423.908 152.453 425.535 151.359C427.163 150.253 429.604 149.641 432.859 149.523L436.648 149.406V148.449C436.648 147.303 436.349 146.464 435.75 145.93C435.151 145.396 434.318 145.129 433.25 145.129C432.195 145.129 431.16 145.279 430.145 145.578C429.129 145.878 428.113 146.255 427.098 146.711L425.125 142.688C426.284 142.076 427.579 141.594 429.012 141.242C430.457 140.891 431.948 140.715 433.484 140.715ZM436.648 152.883L434.344 152.961C432.417 153.013 431.076 153.358 430.32 153.996C429.578 154.634 429.207 155.474 429.207 156.516C429.207 157.427 429.474 158.078 430.008 158.469C430.542 158.846 431.238 159.035 432.098 159.035C433.374 159.035 434.448 158.658 435.32 157.902C436.206 157.147 436.648 156.073 436.648 154.68V152.883ZM470.594 163H464.539V139.484H456.785V134.445H478.348V139.484H470.594V163ZM488.23 141.164V163H482.273V141.164H488.23ZM485.262 132.609C486.147 132.609 486.909 132.818 487.547 133.234C488.185 133.638 488.504 134.4 488.504 135.52C488.504 136.626 488.185 137.395 487.547 137.824C486.909 138.241 486.147 138.449 485.262 138.449C484.363 138.449 483.595 138.241 482.957 137.824C482.332 137.395 482.02 136.626 482.02 135.52C482.02 134.4 482.332 133.638 482.957 133.234C483.595 132.818 484.363 132.609 485.262 132.609ZM520.145 140.754C522.618 140.754 524.487 141.392 525.75 142.668C527.026 143.931 527.664 145.962 527.664 148.762V163H521.688V150.246C521.688 148.684 521.421 147.505 520.887 146.711C520.353 145.917 519.526 145.52 518.406 145.52C516.831 145.52 515.711 146.086 515.047 147.219C514.383 148.339 514.051 149.947 514.051 152.043V163H508.094V150.246C508.094 149.204 507.977 148.332 507.742 147.629C507.508 146.926 507.15 146.398 506.668 146.047C506.186 145.695 505.568 145.52 504.812 145.52C503.706 145.52 502.833 145.799 502.195 146.359C501.57 146.906 501.121 147.72 500.848 148.801C500.587 149.868 500.457 151.177 500.457 152.727V163H494.5V141.164H499.051L499.852 143.957H500.184C500.626 143.202 501.18 142.59 501.844 142.121C502.521 141.652 503.263 141.307 504.07 141.086C504.878 140.865 505.698 140.754 506.531 140.754C508.133 140.754 509.487 141.014 510.594 141.535C511.714 142.056 512.573 142.863 513.172 143.957H513.699C514.35 142.837 515.268 142.023 516.453 141.516C517.651 141.008 518.882 140.754 520.145 140.754ZM542.801 140.754C544.819 140.754 546.557 141.145 548.016 141.926C549.474 142.694 550.6 143.814 551.395 145.285C552.189 146.757 552.586 148.553 552.586 150.676V153.566H538.504C538.569 155.246 539.07 156.568 540.008 157.531C540.958 158.482 542.273 158.957 543.953 158.957C545.346 158.957 546.622 158.814 547.781 158.527C548.94 158.241 550.132 157.811 551.355 157.238V161.848C550.275 162.382 549.142 162.772 547.957 163.02C546.785 163.267 545.359 163.391 543.68 163.391C541.492 163.391 539.552 162.987 537.859 162.18C536.18 161.372 534.858 160.142 533.895 158.488C532.944 156.835 532.469 154.751 532.469 152.238C532.469 149.686 532.898 147.564 533.758 145.871C534.63 144.165 535.841 142.889 537.391 142.043C538.94 141.184 540.743 140.754 542.801 140.754ZM542.84 144.992C541.681 144.992 540.717 145.363 539.949 146.105C539.194 146.848 538.758 148.013 538.641 149.602H547C546.987 148.716 546.824 147.928 546.512 147.238C546.212 146.548 545.757 146.001 545.145 145.598C544.546 145.194 543.777 144.992 542.84 144.992Z" fill="#4B859F"/>
</g>
<defs>
<linearGradient id="paint0_linear_813_353" x1="720" y1="0" x2="720" y2="234" gradientUnits="userSpaceOnUse">
<stop stop-color="#FECC01"/>
<stop offset="1" stop-color="#A5C2CF"/>
</linearGradient>
<clipPath id="clip0_813_353">
<rect width="1440" height="234" fill="white"/>
</clipPath>
</defs>
</svg>
