<svg width="16" height="17" viewBox="0 0 16 17" fill="none" xmlns="http://www.w3.org/2000/svg">
<path id="Vector" d="M11.004 0.796617C11.3222 0.478508 11.7537 0.299805 12.2037 0.299805C12.6536 0.299805 13.0851 0.478508 13.4033 0.796617L15.5032 2.89646C15.6608 3.05403 15.7859 3.24112 15.8712 3.44704C15.9565 3.65295 16.0004 3.87366 16.0004 4.09655C16.0004 4.31944 15.9565 4.54015 15.8712 4.74606C15.7859 4.95198 15.6608 5.13906 15.5032 5.29664L5.41292 15.3869L0 16.2998L0.913749 10.8869L11.004 0.796617ZM10.8097 3.39024L12.9096 5.49008L14.3035 4.09612L12.2037 1.99713L10.8097 3.39024ZM11.7091 6.69059L9.61006 4.59075L2.4969 11.7039L2.07015 14.2297L4.59589 13.8038L11.7091 6.69059Z" fill="#4B859F"/>
</svg>
