<svg version="1.1" id="Layer_1" xmlns="http://www.w3.org/2000/svg" xmlns:xlink="http://www.w3.org/1999/xlink" x="0px" y="0px"
	 width="100%" viewBox="0 0 213 213" enable-background="new 0 0 213 213" xml:space="preserve">
<path fill="#D9D9D9" opacity="1.000000" stroke="none" 
	d="
M0.999999,128.000000 
	C1.000000,114.645775 1.000000,101.291542 1.328401,87.794296 
	C2.096368,86.997162 2.815186,86.390198 2.934724,85.682068 
	C6.054514,67.200653 14.401049,51.055897 26.537609,37.190201 
	C42.232208,19.259535 61.781673,7.234426 85.605476,2.910650 
	C86.167397,2.808666 86.539406,1.660299 87.000000,0.999999 
	C100.354225,1.000000 113.708458,1.000000 127.202469,1.318280 
	C128.155914,2.089682 128.919678,2.773534 129.790573,2.961841 
	C147.022110,6.687617 162.652649,14.065470 175.860046,25.561075 
	C195.345871,42.521362 208.416611,63.484219 212.093811,89.595085 
	C212.170837,90.142029 213.340210,90.535133 214.000000,91.000000 
	C214.000000,101.354225 214.000000,111.708458 213.664368,122.204346 
	C212.894196,123.007202 212.278076,123.611992 212.052505,124.338097 
	C208.914383,134.440033 207.029556,145.152588 202.398071,154.507736 
	C197.668198,164.061646 190.254684,172.286957 183.862091,180.789017 
	C176.060104,175.916870 168.854416,170.230408 160.678452,166.998672 
	C138.839005,158.366135 115.954903,156.870224 92.625847,158.847549 
	C69.961319,160.768555 48.821449,166.307724 30.575087,180.932800 
	C28.287653,178.801514 26.016180,177.014435 24.374262,174.767334 
	C14.335116,161.027908 5.989291,146.460159 2.913095,129.398560 
	C2.811611,128.835693 1.661369,128.461914 0.999999,128.000000 
M141.907944,42.557030 
	C131.290436,34.838989 119.488083,31.535439 106.313255,31.838739 
	C87.337265,32.275589 72.468033,40.544060 61.817989,55.562904 
	C39.685093,86.775040 52.214718,128.326096 87.790733,142.267349 
	C109.625862,150.823959 132.422638,145.558456 148.684998,129.419708 
	C160.655518,117.540161 166.195343,102.711067 165.144699,85.477928 
	C164.061920,67.717400 156.518082,53.692261 141.907944,42.557030 
z"/>
<path fill="#B1B1B1" opacity="1.000000" stroke="none" 
	d="
M30.882021,181.064362 
	C48.821449,166.307724 69.961319,160.768555 92.625847,158.847549 
	C115.954903,156.870224 138.839005,158.366135 160.678452,166.998672 
	C168.854416,170.230408 176.060104,175.916870 183.743958,181.104919 
	C182.007874,183.164764 180.144760,184.505875 178.478378,186.058167 
	C163.159943,200.327972 145.166885,208.994171 124.460686,212.099060 
	C123.891563,212.184402 123.483276,213.342270 123.000000,214.000000 
	C112.645775,214.000000 102.291542,214.000000 91.782478,213.654984 
	C90.792145,212.875870 89.998535,212.192657 89.115028,212.044052 
	C66.248512,208.198059 46.703007,198.139481 30.882021,181.064362 
z"/>
<path fill="#000000" opacity="1.000000" stroke="none" 
	d="
M123.468658,214.000000 
	C123.483276,213.342270 123.891563,212.184402 124.460686,212.099060 
	C145.166885,208.994171 163.159943,200.327972 178.478378,186.058167 
	C180.144760,184.505875 182.007874,183.164764 183.897873,181.409805 
	C190.254684,172.286957 197.668198,164.061646 202.398071,154.507736 
	C207.029556,145.152588 208.914383,134.440033 212.052505,124.338097 
	C212.278076,123.611992 212.894196,123.007202 213.664368,122.673004 
	C214.000000,153.260254 214.000000,183.520493 214.000000,214.000000 
	C183.979462,214.000000 153.958389,214.000000 123.468658,214.000000 
z"/>
<path fill="#000000" opacity="1.000000" stroke="none" 
	d="
M30.575087,180.932800 
	C46.703007,198.139481 66.248512,208.198059 89.115028,212.044052 
	C89.998535,212.192657 90.792145,212.875870 91.313820,213.654984 
	C61.074753,214.000000 31.149506,214.000000 1.000000,214.000000 
	C1.000000,185.646164 1.000000,157.291748 0.999999,128.468658 
	C1.661369,128.461914 2.811611,128.835693 2.913095,129.398560 
	C5.989291,146.460159 14.335116,161.027908 24.374262,174.767334 
	C26.016180,177.014435 28.287653,178.801514 30.575087,180.932800 
z"/>
<path fill="#000000" opacity="1.000000" stroke="none" 
	d="
M214.000000,90.531342 
	C213.340210,90.535133 212.170837,90.142029 212.093811,89.595085 
	C208.416611,63.484219 195.345871,42.521362 175.860046,25.561075 
	C162.652649,14.065470 147.022110,6.687617 129.790573,2.961841 
	C128.919678,2.773534 128.155914,2.089682 127.671127,1.318280 
	C156.595230,1.000000 185.190475,1.000000 214.000000,1.000000 
	C214.000000,30.687218 214.000000,60.374950 214.000000,90.531342 
z"/>
<path fill="#000000" opacity="1.000000" stroke="none" 
	d="
M86.531342,0.999999 
	C86.539406,1.660299 86.167397,2.808666 85.605476,2.910650 
	C61.781673,7.234426 42.232208,19.259535 26.537609,37.190201 
	C14.401049,51.055897 6.054514,67.200653 2.934724,85.682068 
	C2.815186,86.390198 2.096368,86.997162 1.328401,87.325638 
	C1.000000,58.406425 1.000000,29.812853 1.000000,1.000000 
	C29.353851,1.000000 57.708267,1.000000 86.531342,0.999999 
z"/>
<path fill="#B1B1B1" opacity="1.000000" stroke="none" 
	d="
M142.196045,42.769958 
	C156.518082,53.692261 164.061920,67.717400 165.144699,85.477928 
	C166.195343,102.711067 160.655518,117.540161 148.684998,129.419708 
	C132.422638,145.558456 109.625862,150.823959 87.790733,142.267349 
	C52.214718,128.326096 39.685093,86.775040 61.817989,55.562904 
	C72.468033,40.544060 87.337265,32.275589 106.313255,31.838739 
	C119.488083,31.535439 131.290436,34.838989 142.196045,42.769958 
z"/>
</svg>